<?xml version="1.0" encoding="utf-8"?>
<!-- Generator: Adobe Illustrator 29.6.1, SVG Export Plug-In . SVG Version: 9.03 Build 0)  -->
<svg version="1.0" id="Layer_1" xmlns="http://www.w3.org/2000/svg" xmlns:xlink="http://www.w3.org/1999/xlink" x="0px" y="0px"
	 width="70px" height="70px" viewBox="0 0 70 70" style="enable-background:new 0 0 70 70;" xml:space="preserve">
<style type="text/css">
	.st0{fill:#275026;}
</style>
<g>
	<path class="st0" d="M32.27,63.72c0.1-0.74,2.56-20.65-11.86-25.87c-0.02-0.01-0.02-0.04,0.01-0.04c1.41,0.31,7.71,1.92,10.86,6.18
		c0.01,0.02,0.04,0.01,0.03-0.02c-0.34-1.08-3.22-9.71-9.27-16.3c-0.02-0.02,0.01-0.05,0.03-0.03c1.74,1.67,8.08,8.01,10.75,14.28
		c0.01,0.02,0.04,0.02,0.04,0c0.07-0.96,0.75-10.75,0.98-19.7c0.05-1.76-0.15-3.47-0.32-5.11c0-0.03,0.03-0.03,0.04-0.01
		c0.19,0.68,0.78,2.84,1.09,5.23c0.38,2.94,0.77,6.22,0.81,7.55c0,0.06,0.08,0.08,0.11,0.03c0.52-0.88,2.83-4.65,5.82-7.06
		c0.02-0.02,0.05,0.01,0.03,0.03c-0.73,0.83-3.52,4.24-5.17,9.64c-1.25,4.09-0.68,8.92-0.78,15.13c0,0.02,0.03,0.03,0.04,0.01
		c0.41-0.81,4.13-7.78,12.9-14.95c0.02-0.02,0.05,0.01,0.03,0.03c-1.15,1.36-8.6,10.34-9.22,14.94c0,0.02,0.02,0.03,0.03,0.02
		c0.48-0.45,5.06-4.66,10.06-5.55c0.02,0,0.04,0.03,0.01,0.04c-1.75,0.7-14.15,6.24-12.5,21.53c0,0.01-0.01,0.02-0.02,0.02h-4.48
		C32.28,63.74,32.27,63.73,32.27,63.72z"/>
	<path class="st0" d="M38.49,54.73c0.6-0.49,3.71-2.74,7.66,0.15c0.05,0.04,0.06,0.12,0.01,0.16c-0.59,0.48-3.77,2.8-7.62,0.38
		c-0.04-0.03-0.03-0.1,0.02-0.1l5.67-0.24c0,0,0.1-0.07,0-0.12c-0.09-0.05-4.84-0.11-5.7-0.13C38.47,54.82,38.45,54.76,38.49,54.73z
		"/>
	<path class="st0" d="M39.14,51.63c0.42-0.63,2.71-3.66,7.26-2.06c0.06,0.02,0.09,0.1,0.05,0.15c-0.42,0.63-2.75,3.74-7.08,2.54
		c-0.05-0.01-0.05-0.09-0.01-0.1l5.28-1.86c0,0,0.08-0.09-0.04-0.12c-0.1-0.02-4.6,1.29-5.42,1.52
		C39.15,51.72,39.11,51.67,39.14,51.63z"/>
	<path class="st0" d="M43.97,46.59c0.67-0.36,4.14-1.94,7.37,1.67c0.04,0.05,0.03,0.13-0.03,0.16c-0.67,0.35-4.21,1.99-7.44-1.15
		c-0.04-0.04-0.01-0.1,0.04-0.09l5.53,0.89c0,0,0.11-0.05,0.02-0.12c-0.08-0.07-4.66-1.07-5.49-1.26
		C43.93,46.68,43.93,46.62,43.97,46.59z"/>
	<path class="st0" d="M47.71,43.98c0.67-0.37,4.1-2,7.38,1.54c0.04,0.05,0.03,0.13-0.02,0.16c-0.66,0.36-4.16,2.05-7.44-1.03
		c-0.04-0.03-0.01-0.1,0.04-0.09l5.53,0.8c0,0,0.11-0.05,0.02-0.12c-0.08-0.06-4.66-0.99-5.49-1.17
		C47.68,44.07,47.67,44.01,47.71,43.98z"/>
	<path class="st0" d="M50.64,41.48c0.47-0.54,3.01-3.08,7.05-0.97c0.05,0.03,0.07,0.1,0.03,0.15c-0.47,0.53-3.05,3.14-6.94,1.45
		c-0.04-0.02-0.04-0.09,0.01-0.1l5.17-1.05c0,0,0.08-0.08-0.02-0.11c-0.09-0.03-4.46,0.6-5.25,0.71
		C50.63,41.56,50.61,41.51,50.64,41.48z"/>
	<path class="st0" d="M50.84,38.58c0.29-0.66,1.93-3.85,6.42-3.07c0.06,0.01,0.1,0.08,0.07,0.13c-0.29,0.65-1.95,3.92-6.17,3.5
		c-0.05,0-0.06-0.07-0.02-0.09l4.61-2.57c0,0,0.06-0.1-0.06-0.1c-0.1,0-4.06,1.93-4.79,2.28C50.87,38.66,50.82,38.62,50.84,38.58z"
		/>
	<path class="st0" d="M45.83,36.49c0.43-0.58,2.74-3.32,6.94-1.56c0.06,0.02,0.08,0.1,0.04,0.15c-0.43,0.57-2.78,3.39-6.79,2.03
		c-0.05-0.02-0.05-0.08,0-0.1l5.06-1.48c0,0,0.08-0.08-0.03-0.11c-0.09-0.02-4.39,0.97-5.18,1.15
		C45.84,36.57,45.81,36.52,45.83,36.49z"/>
	<path class="st0" d="M42.51,43.43c-0.05-0.63-0.12-3.77,3.67-5.05c0.05-0.02,0.11,0.02,0.11,0.07c0.05,0.62,0.13,3.84-3.3,5.27
		c-0.04,0.02-0.08-0.03-0.06-0.06l2.48-3.91c0,0,0-0.1-0.09-0.06c-0.08,0.04-2.33,3.18-2.74,3.75
		C42.56,43.48,42.51,43.47,42.51,43.43z"/>
	<path class="st0" d="M47.35,41.71c-0.05-0.39-0.2-2.38,2.15-3.31c0.03-0.01,0.07,0.01,0.07,0.04c0.05,0.39,0.21,2.42-1.91,3.44
		c-0.02,0.01-0.05-0.02-0.04-0.04l1.44-2.55c0,0,0-0.06-0.06-0.03c-0.05,0.03-1.37,2.09-1.61,2.46
		C47.39,41.75,47.35,41.74,47.35,41.71z"/>
	<path class="st0" d="M37.83,59.56c0.28,0.1,1.64,0.71,1.42,2.59c0,0.03-0.03,0.04-0.05,0.03c-0.28-0.1-1.67-0.72-1.59-2.48
		c0-0.02,0.03-0.03,0.04-0.01l1.17,1.85c0,0,0.04,0.02,0.04-0.03c0-0.04-0.89-1.64-1.05-1.93C37.8,59.57,37.81,59.55,37.83,59.56z"
		/>
	<path class="st0" d="M38.62,56.93c0.78-0.03,4.7,0.05,6.09,4.83c0.02,0.06-0.03,0.13-0.1,0.13c-0.78,0.03-4.79-0.04-6.39-4.38
		c-0.02-0.05,0.04-0.1,0.08-0.07l4.73,3.29c0,0,0.12,0.01,0.07-0.1c-0.04-0.1-3.84-3.07-4.53-3.61
		C38.55,56.99,38.57,56.93,38.62,56.93z"/>
	<path class="st0" d="M44.06,57.48c0.68-0.04,4.06-0.04,5.34,4.06c0.02,0.06-0.02,0.11-0.08,0.12c-0.67,0.04-4.13,0.05-5.59-3.67
		c-0.02-0.04,0.03-0.08,0.07-0.06l4.14,2.76c0,0,0.11,0,0.06-0.09c-0.04-0.08-3.37-2.58-3.97-3.04C44,57.53,44.02,57.48,44.06,57.48
		z"/>
	<path class="st0" d="M47.05,55.87c0.57-0.23,3.49-1.21,5.78,1.95c0.03,0.04,0.01,0.11-0.03,0.12c-0.57,0.23-3.54,1.25-5.88-1.54
		c-0.03-0.03,0-0.08,0.04-0.07l4.37,1.17c0,0,0.09-0.03,0.03-0.1c-0.06-0.06-3.65-1.25-4.3-1.47
		C47.01,55.93,47.01,55.88,47.05,55.87z"/>
	<path class="st0" d="M45.61,52.78c0.08-0.41,0.59-2.4,3.21-2.53c0.04,0,0.06,0.03,0.06,0.07c-0.08,0.4-0.6,2.44-3.01,2.74
		c-0.03,0-0.04-0.03-0.02-0.05l2.26-2.02c0,0,0.02-0.06-0.04-0.05c-0.05,0.01-2.03,1.59-2.39,1.88
		C45.63,52.82,45.6,52.81,45.61,52.78z"/>
	<path class="st0" d="M47.4,53.96c0.27-0.43,1.72-2.51,4.79-1.54c0.04,0.01,0.06,0.06,0.04,0.1c-0.26,0.43-1.74,2.56-4.66,1.86
		c-0.03-0.01-0.04-0.06-0.01-0.07l3.48-1.36c0,0,0.05-0.06-0.03-0.08c-0.07-0.01-3.04,0.96-3.58,1.13
		C47.41,54.02,47.39,53.99,47.4,53.96z"/>
	<path class="st0" d="M51.11,50.22c0.45-0.47,2.81-2.68,6.39-0.65c0.05,0.03,0.06,0.09,0.02,0.13c-0.44,0.47-2.85,2.74-6.31,1.09
		c-0.04-0.02-0.03-0.08,0.01-0.09l4.7-0.78c0,0,0.08-0.07-0.02-0.1c-0.08-0.03-4.04,0.4-4.77,0.47
		C51.1,50.29,51.08,50.24,51.11,50.22z"/>
	<path class="st0" d="M53.47,47.81c0.23-0.34,1.48-1.98,3.94-1.09c0.03,0.01,0.05,0.05,0.03,0.08c-0.23,0.34-1.5,2.02-3.84,1.35
		c-0.03-0.01-0.03-0.05,0-0.06l2.86-0.99c0,0,0.04-0.05-0.02-0.06c-0.05-0.01-2.49,0.68-2.94,0.8
		C53.47,47.86,53.45,47.83,53.47,47.81z"/>
	<path class="st0" d="M54.28,43.36c0.34-0.12,2.08-0.63,3.36,1.29c0.02,0.03,0.01,0.06-0.02,0.07c-0.34,0.12-2.12,0.64-3.42-1.05
		c-0.01-0.02,0-0.05,0.03-0.04l2.54,0.8c0,0,0.06-0.01,0.02-0.06c-0.03-0.04-2.12-0.82-2.5-0.97C54.26,43.4,54.26,43.37,54.28,43.36
		z"/>
	<path class="st0" d="M53.33,52.51c0.28-0.3,1.79-1.71,4.06-0.42c0.03,0.02,0.04,0.06,0.01,0.09c-0.28,0.3-1.81,1.74-4.01,0.7
		c-0.02-0.01-0.02-0.05,0.01-0.06l2.99-0.5c0,0,0.05-0.04-0.01-0.07c-0.05-0.02-2.57,0.26-3.03,0.3
		C53.33,52.56,53.31,52.53,53.33,52.51z"/>
	<path class="st0" d="M49.98,59.1c0.45-0.02,2.69,0,3.51,2.72c0.01,0.04-0.02,0.08-0.05,0.08c-0.44,0.02-2.73,0.01-3.68-2.46
		c-0.01-0.03,0.02-0.06,0.05-0.04l2.73,1.85c0,0,0.07,0,0.04-0.06c-0.03-0.05-2.21-1.73-2.61-2.03
		C49.94,59.14,49.96,59.1,49.98,59.1z"/>
	<path class="st0" d="M53.54,58.98c0.46-0.03,2.79-0.04,3.68,2.77c0.01,0.04-0.01,0.08-0.05,0.08c-0.46,0.03-2.83,0.05-3.85-2.5
		c-0.01-0.03,0.02-0.06,0.05-0.04l2.85,1.88c0,0,0.07,0,0.04-0.06c-0.03-0.06-2.32-1.76-2.74-2.07
		C53.5,59.02,53.51,58.98,53.54,58.98z"/>
	<path class="st0" d="M54.41,57.44c0.35-0.16,2.13-0.86,3.66,1.04c0.02,0.03,0.01,0.07-0.02,0.08c-0.35,0.16-2.17,0.88-3.71-0.78
		c-0.02-0.02,0-0.05,0.02-0.05l2.75,0.6c0,0,0.06-0.02,0.01-0.06c-0.04-0.04-2.31-0.67-2.72-0.78
		C54.39,57.48,54.38,57.45,54.41,57.44z"/>
	<path class="st0" d="M51.65,54.77c0.51-0.4,3.18-2.21,6.39,0.34c0.04,0.03,0.04,0.1,0,0.14c-0.51,0.39-3.23,2.26-6.38,0.1
		c-0.04-0.02-0.02-0.08,0.02-0.08l4.74-0.04c0,0,0.09-0.05,0-0.1c-0.08-0.04-4.04-0.23-4.76-0.27
		C51.63,54.85,51.62,54.8,51.65,54.77z"/>
	<path class="st0" d="M54.19,34.4c0.17-0.25,1.11-1.42,2.88-0.73c0.02,0.01,0.03,0.04,0.02,0.06c-0.17,0.24-1.12,1.45-2.82,0.93
		c-0.02-0.01-0.02-0.03,0-0.04l2.1-0.68c0,0,0.03-0.04-0.01-0.05c-0.04-0.01-1.83,0.46-2.15,0.54C54.2,34.43,54.18,34.41,54.19,34.4
		z"/>
	<path class="st0" d="M49.14,32.58c0.5-0.64,3.17-3.66,7.85-1.56c0.06,0.03,0.08,0.11,0.04,0.16c-0.49,0.63-3.22,3.73-7.7,2.09
		c-0.05-0.02-0.05-0.1,0-0.11l5.74-1.52c0,0,0.09-0.09-0.03-0.13c-0.11-0.03-4.97,0.97-5.85,1.15
		C49.15,32.68,49.11,32.62,49.14,32.58z"/>
	<path class="st0" d="M54.88,29.46c0.11-0.28,0.77-1.63,2.65-1.35c0.03,0,0.04,0.03,0.03,0.05c-0.11,0.28-0.77,1.66-2.54,1.53
		c-0.02,0-0.03-0.03-0.01-0.04l1.9-1.12c0,0,0.02-0.04-0.02-0.04c-0.04,0-1.68,0.85-1.98,1C54.9,29.5,54.88,29.48,54.88,29.46z"/>
	<path class="st0" d="M50.27,29.92c0.09-0.87,0.8-5.2,6.31-5.97c0.07-0.01,0.14,0.05,0.13,0.13c-0.09,0.86-0.8,5.29-5.87,6.37
		c-0.06,0.01-0.1-0.06-0.06-0.1l4.4-4.71c0,0,0.03-0.14-0.1-0.1c-0.11,0.03-4.01,3.76-4.72,4.43C50.33,30,50.27,29.97,50.27,29.92z"
		/>
	<path class="st0" d="M36.14,43.59c-0.21-0.52-1.09-3.17,1.78-5.24c0.04-0.03,0.1-0.01,0.11,0.03c0.21,0.51,1.12,3.22-1.41,5.34
		c-0.03,0.02-0.07,0-0.06-0.04l1.08-3.96c0,0-0.02-0.09-0.09-0.02c-0.05,0.05-1.14,3.31-1.34,3.9
		C36.2,43.63,36.16,43.63,36.14,43.59z"/>
	<path class="st0" d="M35.98,37.75c-0.11-0.51-0.51-3.1,2.48-4.57c0.04-0.02,0.09,0,0.1,0.05c0.11,0.51,0.53,3.16-2.15,4.71
		c-0.03,0.02-0.07-0.01-0.05-0.05l1.62-3.5c0,0-0.01-0.08-0.08-0.04c-0.06,0.04-1.58,2.88-1.86,3.4
		C36.03,37.79,35.98,37.78,35.98,37.75z"/>
	<path class="st0" d="M39.62,39.3c-0.34-0.61-1.82-3.75,1.42-6.74c0.04-0.04,0.12-0.03,0.14,0.02c0.33,0.6,1.87,3.81-0.95,6.8
		c-0.03,0.03-0.09,0.01-0.09-0.04l0.74-5.06c0,0-0.04-0.1-0.11-0.02c-0.06,0.07-0.91,4.26-1.07,5.02
		C39.7,39.33,39.65,39.33,39.62,39.3z"/>
	<path class="st0" d="M43.23,35.72c-0.3-0.67-1.56-4.11,2.13-6.95c0.05-0.04,0.12-0.02,0.15,0.04c0.29,0.67,1.6,4.18-1.63,7.06
		c-0.04,0.03-0.1,0-0.09-0.05l1.25-5.24c0,0-0.04-0.11-0.11-0.03c-0.07,0.07-1.36,4.39-1.6,5.18C43.3,35.76,43.24,35.76,43.23,35.72
		z"/>
	<path class="st0" d="M47.05,31.54c-0.33-0.72-1.76-4.43,2.2-7.57c0.05-0.04,0.13-0.02,0.16,0.04c0.33,0.72,1.8,4.51-1.66,7.68
		c-0.04,0.04-0.11,0-0.09-0.05l1.27-5.71c0,0-0.04-0.12-0.12-0.03c-0.07,0.08-1.41,4.78-1.65,5.64
		C47.13,31.58,47.07,31.59,47.05,31.54z"/>
	<path class="st0" d="M51.12,24.92c-0.1-0.46-0.48-2.78,2.19-4.12c0.04-0.02,0.08,0,0.09,0.04c0.1,0.46,0.5,2.83-1.9,4.24
		c-0.03,0.02-0.06-0.01-0.05-0.04l1.43-3.15c0,0-0.01-0.07-0.07-0.03c-0.05,0.04-1.4,2.6-1.64,3.06
		C51.16,24.96,51.13,24.95,51.12,24.92z"/>
	<path class="st0" d="M37.53,31.57c0.32-0.62,2.1-3.59,6.39-2.56c0.06,0.01,0.09,0.08,0.06,0.13c-0.32,0.61-2.13,3.66-6.18,2.99
		c-0.05-0.01-0.06-0.07-0.01-0.09l4.61-2.19c0,0,0.06-0.09-0.05-0.1c-0.09-0.01-4.05,1.6-4.77,1.89
		C37.55,31.66,37.51,31.61,37.53,31.57z"/>
	<path class="st0" d="M38.9,27.9c0.28-0.3,1.75-1.68,3.99-0.42c0.03,0.02,0.04,0.06,0.01,0.08c-0.28,0.29-1.78,1.71-3.94,0.69
		c-0.02-0.01-0.02-0.05,0.01-0.05l2.93-0.49c0,0,0.05-0.04-0.01-0.06c-0.05-0.02-2.52,0.25-2.97,0.3
		C38.9,27.95,38.88,27.92,38.9,27.9z"/>
	<path class="st0" d="M40.48,25.14c0.48-0.42,3.02-2.33,6.3,0.01c0.04,0.03,0.05,0.1,0.01,0.13c-0.48,0.41-3.06,2.38-6.27,0.42
		c-0.04-0.02-0.02-0.08,0.02-0.08l4.67-0.28c0,0,0.08-0.06-0.01-0.1c-0.08-0.04-3.99-0.02-4.7-0.02
		C40.47,25.22,40.45,25.17,40.48,25.14z"/>
	<path class="st0" d="M42.7,22.36c0.49-0.79,3.19-4.55,8.78-2.71c0.08,0.02,0.11,0.12,0.07,0.18c-0.49,0.78-3.23,4.64-8.54,3.29
		c-0.06-0.02-0.07-0.1-0.01-0.13l6.37-2.41c0,0,0.09-0.12-0.05-0.14c-0.12-0.02-5.56,1.69-6.55,2
		C42.72,22.47,42.67,22.41,42.7,22.36z"/>
	<path class="st0" d="M41.7,20.91c-0.21-0.75-1.02-4.52,3.25-6.94c0.06-0.03,0.13,0,0.15,0.06c0.21,0.74,1.05,4.6-2.75,7.12
		c-0.04,0.03-0.1-0.02-0.08-0.06l2.08-5.29c0,0-0.02-0.12-0.12-0.05c-0.08,0.07-2.07,4.38-2.44,5.16
		C41.78,20.96,41.72,20.96,41.7,20.91z"/>
	<path class="st0" d="M45.58,18.67c0.06-0.37,0.5-2.22,2.9-2.39c0.03,0,0.06,0.03,0.05,0.06c-0.06,0.37-0.5,2.26-2.71,2.58
		c-0.03,0-0.04-0.03-0.02-0.05l2.03-1.91c0,0,0.02-0.06-0.04-0.04c-0.05,0.01-1.84,1.51-2.16,1.78
		C45.6,18.71,45.58,18.69,45.58,18.67z"/>
	<path class="st0" d="M36.09,26.23c-0.34-0.64-1.81-3.92,1.61-6.96c0.05-0.04,0.12-0.03,0.15,0.03c0.33,0.63,1.85,3.99-1.12,7.03
		c-0.03,0.03-0.1,0.01-0.09-0.04l0.87-5.22c0,0-0.04-0.11-0.11-0.02c-0.06,0.08-1.04,4.4-1.22,5.18
		C36.17,26.26,36.11,26.27,36.09,26.23z"/>
	<path class="st0" d="M39.68,22.52c-0.37-0.45-2.07-2.82,0.15-5.78c0.03-0.04,0.09-0.04,0.12,0c0.36,0.45,2.12,2.86,0.25,5.76
		c-0.02,0.03-0.08,0.02-0.08-0.02l-0.16-4.28c0,0-0.05-0.08-0.09,0c-0.04,0.07-0.11,3.65-0.12,4.31
		C39.75,22.53,39.71,22.55,39.68,22.52z"/>
	<path class="st0" d="M41.47,15.13c-0.09-0.37-0.44-2.22,1.67-3.34c0.03-0.02,0.06,0,0.07,0.03c0.09,0.36,0.45,2.25-1.43,3.43
		c-0.02,0.01-0.05-0.01-0.04-0.03l1.08-2.55c0,0-0.01-0.06-0.06-0.02c-0.04,0.03-1.07,2.11-1.25,2.48
		C41.51,15.15,41.48,15.15,41.47,15.13z"/>
	<path class="st0" d="M35.11,18c-0.11-1.02-0.35-6.15,5.68-8.62c0.08-0.03,0.17,0.02,0.18,0.11c0.11,1.01,0.37,6.25-5.08,8.94
		c-0.06,0.03-0.13-0.04-0.09-0.1l3.82-6.63c0,0,0-0.16-0.14-0.08c-0.12,0.07-3.61,5.44-4.25,6.41C35.19,18.09,35.11,18.07,35.11,18z
		"/>
	<path class="st0" d="M36.81,10.78c-0.07-0.39-0.3-2.36,2-3.38c0.03-0.01,0.07,0.01,0.07,0.04c0.07,0.39,0.31,2.4-1.76,3.5
		c-0.02,0.01-0.05-0.01-0.04-0.04l1.33-2.59c0,0,0-0.06-0.06-0.03c-0.05,0.03-1.27,2.13-1.5,2.51
		C36.84,10.81,36.81,10.8,36.81,10.78z"/>
	<path class="st0" d="M31.41,11.57c-0.38-0.1-2.23-0.74-2.15-3.23c0-0.03,0.03-0.06,0.07-0.05c0.37,0.1,2.27,0.75,2.36,3.06
		c0,0.03-0.03,0.04-0.05,0.02l-1.74-2.29c0,0-0.06-0.02-0.05,0.04c0.01,0.05,1.35,2.04,1.6,2.41
		C31.45,11.55,31.44,11.57,31.41,11.57z"/>
	<path class="st0" d="M33.63,14.65c-0.59-0.82-3.27-5.11,0.53-10.3c0.05-0.07,0.15-0.07,0.2,0c0.58,0.82,3.34,5.19,0.13,10.27
		c-0.04,0.06-0.12,0.03-0.13-0.04l-0.05-7.65c0,0-0.08-0.14-0.15,0c-0.06,0.12-0.36,6.51-0.42,7.67
		C33.74,14.68,33.66,14.7,33.63,14.65z"/>
	<path class="st0" d="M32.64,17.91c-0.82-0.26-4.84-1.82-5.28-7.27c-0.01-0.07,0.06-0.13,0.13-0.1c0.81,0.26,4.93,1.83,5.68,6.92
		c0.01,0.06-0.06,0.08-0.1,0.04l-4.2-5.17c0,0-0.13-0.05-0.1,0.08c0.03,0.12,3.32,4.61,3.92,5.43
		C32.73,17.87,32.69,17.93,32.64,17.91z"/>
	<path class="st0" d="M27.9,15.9c-0.44-0.09-2.58-0.65-2.71-3.46c0-0.04,0.03-0.07,0.07-0.06c0.43,0.09,2.63,0.65,2.94,3.25
		c0,0.03-0.03,0.05-0.05,0.03l-2.17-2.43c0,0-0.07-0.02-0.05,0.05c0.01,0.06,1.71,2.19,2.01,2.58C27.95,15.88,27.93,15.91,27.9,15.9
		z"/>
	<path class="st0" d="M32.33,22.96c-0.84-0.13-4.96-1.05-5.42-6.4c-0.01-0.07,0.06-0.13,0.13-0.12c0.83,0.13,5.05,1.05,5.82,5.98
		c0.01,0.06-0.06,0.09-0.1,0.05L28.46,18c0,0-0.13-0.03-0.1,0.09c0.03,0.11,3.41,4.06,4.02,4.78
		C32.42,22.91,32.38,22.97,32.33,22.96z"/>
	<path class="st0" d="M25.64,20.48c-0.57-0.35-3.3-2.25-2.03-6.28c0.02-0.05,0.08-0.08,0.13-0.05c0.56,0.34,3.36,2.27,2.45,6.1
		c-0.01,0.04-0.07,0.05-0.09,0.01l-1.8-4.55c0,0-0.08-0.06-0.1,0.04c-0.01,0.09,1.27,3.97,1.5,4.68
		C25.72,20.47,25.67,20.5,25.64,20.48z"/>
	<path class="st0" d="M31.93,29.53c-0.77-0.28-4.53-1.92-3.97-7.1c0.01-0.07,0.08-0.12,0.15-0.09c0.76,0.28,4.62,1.94,4.44,6.79
		c0,0.06-0.08,0.08-0.11,0.03l-3.27-5.07c0,0-0.12-0.06-0.11,0.07c0.01,0.11,2.5,4.5,2.95,5.3C32.02,29.5,31.98,29.55,31.93,29.53z"
		/>
	<path class="st0" d="M31.02,36.82c-0.63-0.48-3.6-3.06-1.6-7.65c0.03-0.06,0.11-0.08,0.16-0.04c0.62,0.48,3.67,3.11,2.11,7.49
		c-0.02,0.05-0.09,0.05-0.11,0l-1.54-5.59c0,0-0.09-0.09-0.12,0.03c-0.03,0.1,0.99,4.84,1.17,5.7
		C31.11,36.81,31.06,36.85,31.02,36.82z"/>
	<path class="st0" d="M26.94,32.01c-0.27-0.41-1.49-2.54,0.77-4.68c0.03-0.03,0.08-0.02,0.11,0.01c0.27,0.41,1.53,2.58-0.42,4.71
		c-0.02,0.02-0.07,0.01-0.06-0.02l0.34-3.5c0,0-0.04-0.07-0.08-0.01c-0.04,0.05-0.5,2.96-0.59,3.49
		C27,32.03,26.96,32.03,26.94,32.01z"/>
	<path class="st0" d="M24.64,28.94c-0.42-0.64-2.31-3.95,0.98-7.5c0.04-0.05,0.12-0.04,0.16,0.01c0.41,0.63,2.37,4.01-0.46,7.53
		c-0.03,0.04-0.1,0.02-0.1-0.04l0.38-5.6c0,0-0.06-0.11-0.12-0.01c-0.06,0.09-0.64,4.74-0.75,5.59
		C24.73,28.96,24.66,28.98,24.64,28.94z"/>
	<path class="st0" d="M22.42,25.7c-0.65-0.55-3.75-3.51-1.97-8.66c0.02-0.07,0.1-0.09,0.16-0.05c0.64,0.55,3.82,3.56,2.48,8.49
		c-0.02,0.06-0.09,0.05-0.11,0l-1.81-6.33c0,0-0.1-0.1-0.12,0.03c-0.02,0.12,1.23,5.48,1.45,6.45C22.51,25.7,22.46,25.74,22.42,25.7
		z"/>
	<path class="st0" d="M19.97,26.14c-0.69-0.1-4.08-0.82-4.49-5.2c-0.01-0.06,0.05-0.11,0.11-0.1c0.68,0.1,4.15,0.82,4.82,4.86
		c0.01,0.05-0.05,0.08-0.08,0.04l-3.57-3.64c0,0-0.11-0.03-0.08,0.08c0.02,0.09,2.83,3.3,3.34,3.88
		C20.04,26.09,20.01,26.14,19.97,26.14z"/>
	<path class="st0" d="M22.44,18.09c-0.22-0.13-1.3-0.86-0.82-2.43c0.01-0.02,0.03-0.03,0.05-0.02c0.22,0.13,1.32,0.87,0.98,2.36
		c0,0.02-0.03,0.02-0.03,0l-0.72-1.76c0,0-0.03-0.02-0.04,0.02c0,0.03,0.51,1.54,0.61,1.82C22.47,18.08,22.46,18.09,22.44,18.09z"/>
	<path class="st0" d="M19.22,21.58c-0.3-0.11-1.74-0.77-1.49-2.77c0-0.03,0.03-0.04,0.06-0.03c0.29,0.11,1.77,0.78,1.67,2.65
		c0,0.02-0.03,0.03-0.04,0.01l-1.23-1.98c0,0-0.05-0.02-0.04,0.03c0,0.04,0.93,1.76,1.1,2.07C19.25,21.57,19.23,21.59,19.22,21.58z"
		/>
	<path class="st0" d="M16.26,25.4c-0.39,0.14-2.36,0.7-3.79-1.48c-0.02-0.03-0.01-0.07,0.03-0.08c0.38-0.13,2.4-0.72,3.86,1.21
		c0.02,0.02,0,0.05-0.03,0.05l-2.87-0.92c0,0-0.06,0.02-0.02,0.06c0.04,0.04,2.39,0.94,2.82,1.11
		C16.28,25.36,16.28,25.39,16.26,25.4z"/>
	<path class="st0" d="M20.58,28.65c-0.71,0.45-4.36,2.48-8.2-1.18c-0.05-0.05-0.04-0.14,0.02-0.18c0.7-0.44,4.43-2.53,8.23,0.61
		c0.04,0.04,0.02,0.11-0.04,0.11l-6.12-0.49c0,0-0.12,0.06-0.01,0.13c0.09,0.06,5.18,0.77,6.11,0.9
		C20.61,28.56,20.63,28.62,20.58,28.65z"/>
	<path class="st0" d="M17.85,32.54c-0.6,0.22-3.67,1.1-5.9-2.28c-0.03-0.05-0.01-0.11,0.04-0.13c0.6-0.21,3.73-1.13,6.02,1.86
		c0.03,0.03-0.01,0.08-0.05,0.07l-4.47-1.42c0,0-0.1,0.02-0.03,0.1c0.06,0.06,3.72,1.46,4.39,1.71
		C17.89,32.48,17.89,32.53,17.85,32.54z"/>
	<path class="st0" d="M23.62,31.4c-0.51,0.31-3.14,1.67-5.8-1c-0.04-0.04-0.03-0.1,0.01-0.12c0.51-0.3,3.19-1.71,5.84,0.59
		c0.03,0.03,0.01,0.08-0.03,0.07l-4.34-0.47c0,0-0.09,0.04-0.01,0.09c0.06,0.05,3.67,0.65,4.32,0.76
		C23.64,31.34,23.65,31.38,23.62,31.4z"/>
	<path class="st0" d="M25.54,33.7c-0.31,0.19-1.91,1.06-3.58-0.55c-0.02-0.02-0.02-0.06,0.01-0.08c0.31-0.19,1.94-1.09,3.59,0.3
		c0.02,0.02,0.01,0.05-0.02,0.05l-2.67-0.24c0,0-0.05,0.03-0.01,0.06c0.04,0.03,2.26,0.36,2.66,0.42
		C25.56,33.66,25.56,33.68,25.54,33.7z"/>
	<path class="st0" d="M22.22,37.6c-0.58-0.13-3.44-0.94-3.53-4.71c0-0.05,0.05-0.09,0.1-0.08c0.57,0.13,3.5,0.95,3.83,4.44
		c0,0.04-0.05,0.06-0.07,0.03l-2.83-3.32c0,0-0.09-0.03-0.07,0.06c0.01,0.08,2.22,2.99,2.62,3.52
		C22.28,37.57,22.25,37.61,22.22,37.6z"/>
	<path class="st0" d="M28.03,39.62c-0.66-0.08-3.91-0.67-4.43-4.84c-0.01-0.06,0.04-0.11,0.1-0.1c0.65,0.08,3.98,0.67,4.73,4.5
		c0.01,0.04-0.05,0.08-0.08,0.04l-3.5-3.38c0,0-0.1-0.02-0.07,0.08c0.02,0.09,2.79,3.07,3.29,3.61
		C28.1,39.58,28.08,39.63,28.03,39.62z"/>
	<path class="st0" d="M18.69,37.01c-0.67,0.23-4.1,1.14-6.49-2.68c-0.03-0.05-0.01-0.12,0.05-0.14c0.67-0.22,4.17-1.17,6.64,2.22
		c0.03,0.04-0.01,0.09-0.06,0.08l-4.93-1.68c0,0-0.11,0.03-0.04,0.11c0.06,0.07,4.1,1.71,4.83,2.01
		C18.74,36.94,18.74,36.99,18.69,37.01z"/>
	<path class="st0" d="M14.93,37.89c-0.24,0.18-1.47,0.99-2.93-0.2c-0.02-0.02-0.02-0.05,0-0.06c0.24-0.18,1.49-1.01,2.92,0
		c0.02,0.01,0.01,0.04-0.01,0.04l-2.17-0.01c0,0-0.04,0.02,0,0.05c0.03,0.02,1.85,0.13,2.18,0.15
		C14.93,37.85,14.94,37.88,14.93,37.89z"/>
	<path class="st0" d="M21.55,39.98c-0.64,0.54-4,3.02-8.28-0.11c-0.06-0.04-0.06-0.13-0.01-0.18c0.64-0.53,4.06-3.09,8.24-0.46
		c0.05,0.03,0.03,0.11-0.03,0.11l-6.13,0.31c0,0-0.11,0.07,0.01,0.13c0.1,0.05,5.24,0.09,6.17,0.1
		C21.57,39.88,21.59,39.94,21.55,39.98z"/>
	<path class="st0" d="M26.79,43.6c-0.68,0.51-4.23,2.84-8.41-0.58c-0.06-0.05-0.06-0.14,0-0.18c0.68-0.5,4.3-2.91,8.4-0.01
		c0.05,0.03,0.02,0.11-0.03,0.11l-6.25-0.04c0,0-0.12,0.07,0,0.14c0.1,0.06,5.32,0.38,6.27,0.45C26.81,43.5,26.83,43.57,26.79,43.6z
		"/>
	<path class="st0" d="M17.38,43.63c-0.49,0.21-2.97,1.1-5-1.57c-0.03-0.04-0.01-0.09,0.03-0.11c0.48-0.21,3.02-1.13,5.08,1.22
		c0.02,0.03,0,0.07-0.04,0.06l-3.77-0.93c0,0-0.08,0.03-0.02,0.08c0.05,0.05,3.16,1.01,3.72,1.18
		C17.41,43.57,17.41,43.62,17.38,43.63z"/>
	<path class="st0" d="M31.22,54.99c-0.55-0.49-3.46-2.74-7.33-0.11c-0.05,0.04-0.06,0.11-0.01,0.15c0.55,0.48,3.51,2.8,7.27,0.61
		c0.04-0.02,0.03-0.09-0.02-0.1l-5.42-0.42c0,0-0.1-0.07,0.01-0.12c0.09-0.04,4.63,0.05,5.46,0.07
		C31.23,55.08,31.25,55.02,31.22,54.99z"/>
	<path class="st0" d="M31.03,51.85c-0.42-0.63-2.71-3.66-7.26-2.06c-0.06,0.02-0.09,0.1-0.05,0.15c0.42,0.63,2.75,3.74,7.08,2.54
		c0.05-0.01,0.05-0.09,0.01-0.1l-5.28-1.86c0,0-0.08-0.09,0.04-0.12c0.1-0.02,4.6,1.29,5.42,1.52
		C31.02,51.94,31.06,51.89,31.03,51.85z"/>
	<path class="st0" d="M29.57,47.3c-0.55-0.59-3.51-3.4-8.24-1.31c-0.06,0.03-0.08,0.11-0.03,0.16c0.55,0.59,3.56,3.46,8.11,1.81
		c0.05-0.02,0.05-0.09-0.01-0.1l-6.04-1.31c0,0-0.1-0.09,0.03-0.12c0.11-0.03,5.21,0.81,6.14,0.96
		C29.57,47.39,29.61,47.33,29.57,47.3z"/>
	<path class="st0" d="M31.33,59.7c-0.27,0.12-1.6,0.8-1.28,2.66c0,0.03,0.03,0.04,0.06,0.03c0.27-0.12,1.63-0.81,1.45-2.56
		c0-0.02-0.03-0.03-0.04-0.01l-1.07,1.91c0,0-0.04,0.02-0.04-0.02c0-0.04,0.8-1.69,0.94-1.99C31.37,59.71,31.35,59.69,31.33,59.7z"
		/>
	<path class="st0" d="M30.59,57.44c-0.75-0.03-4.5,0.03-5.84,4.6c-0.02,0.06,0.03,0.13,0.09,0.13c0.74,0.03,4.57-0.02,6.12-4.17
		c0.02-0.05-0.04-0.09-0.08-0.06l-4.53,3.13c0,0-0.12,0.01-0.07-0.1c0.04-0.09,3.68-2.92,4.34-3.44
		C30.66,57.5,30.64,57.44,30.59,57.44z"/>
	<path class="st0" d="M25.48,57.65c-0.68-0.04-4.06-0.04-5.34,4.06c-0.02,0.06,0.02,0.11,0.08,0.12c0.67,0.04,4.13,0.05,5.59-3.67
		c0.02-0.04-0.03-0.08-0.07-0.06l-4.14,2.76c0,0-0.11,0-0.06-0.09c0.04-0.08,3.37-2.58,3.97-3.04
		C25.54,57.71,25.52,57.65,25.48,57.65z"/>
	<path class="st0" d="M22.75,55.94c-0.57-0.23-3.49-1.21-5.78,1.95c-0.03,0.04-0.01,0.11,0.03,0.12c0.57,0.23,3.54,1.25,5.88-1.54
		c0.03-0.03,0-0.08-0.04-0.07l-4.37,1.17c0,0-0.09-0.03-0.03-0.1c0.06-0.06,3.65-1.25,4.3-1.47C22.79,56.01,22.79,55.95,22.75,55.94
		z"/>
	<path class="st0" d="M24.4,52.86c-0.07-0.37-0.54-2.19-2.93-2.31c-0.03,0-0.06,0.03-0.05,0.06c0.07,0.37,0.54,2.23,2.75,2.5
		c0.03,0,0.04-0.03,0.02-0.05l-2.06-1.85c0,0-0.02-0.06,0.04-0.05c0.05,0.01,1.86,1.45,2.19,1.72C24.38,52.9,24.4,52.89,24.4,52.86z
		"/>
	<path class="st0" d="M22.89,53.93c-0.29-0.47-1.88-2.74-5.23-1.67c-0.05,0.01-0.07,0.07-0.04,0.11c0.29,0.47,1.9,2.79,5.08,2.02
		c0.04-0.01,0.04-0.06,0.01-0.07l-3.79-1.48c0,0-0.05-0.07,0.03-0.08c0.07-0.01,3.31,1.05,3.9,1.24
		C22.88,53.99,22.91,53.96,22.89,53.93z"/>
	<path class="st0" d="M18.5,50.14c-0.41-0.51-2.59-2.9-6.32-1.17c-0.05,0.02-0.07,0.09-0.03,0.13c0.4,0.5,2.62,2.96,6.2,1.6
		c0.04-0.02,0.04-0.08,0-0.09l-4.62-1.16c0,0-0.07-0.07,0.02-0.1c0.08-0.02,4,0.72,4.71,0.86C18.5,50.22,18.53,50.17,18.5,50.14z"/>
	<path class="st0" d="M19.06,45.69c-0.55-0.39-3.44-2.18-6.71,0.64c-0.04,0.04-0.04,0.11,0.01,0.14c0.55,0.39,3.5,2.23,6.71-0.17
		c0.04-0.03,0.02-0.09-0.03-0.09l-4.99,0.16c0,0-0.09-0.05,0-0.11c0.08-0.05,4.24-0.42,4.99-0.49
		C19.08,45.77,19.1,45.72,19.06,45.69z"/>
	<path class="st0" d="M16.2,52.39c-0.28-0.3-1.79-1.71-4.06-0.42c-0.03,0.02-0.04,0.06-0.01,0.09c0.28,0.3,1.81,1.74,4.01,0.7
		c0.02-0.01,0.02-0.05-0.01-0.06l-2.99-0.5c0,0-0.05-0.04,0.01-0.07c0.05-0.02,2.57,0.26,3.03,0.3
		C16.2,52.44,16.21,52.41,16.2,52.39z"/>
	<path class="st0" d="M19.7,59.01c-0.45-0.02-2.69,0-3.51,2.72c-0.01,0.04,0.02,0.08,0.05,0.08c0.44,0.02,2.73,0.01,3.68-2.46
		c0.01-0.03-0.02-0.06-0.05-0.04l-2.73,1.85c0,0-0.07,0-0.04-0.06c0.03-0.05,2.21-1.73,2.61-2.03
		C19.74,59.04,19.73,59.01,19.7,59.01z"/>
	<path class="st0" d="M16.12,58.95c-0.46-0.03-2.79-0.04-3.68,2.77c-0.01,0.04,0.01,0.08,0.05,0.08c0.46,0.03,2.83,0.05,3.85-2.5
		c0.01-0.03-0.02-0.06-0.05-0.04l-2.85,1.88c0,0-0.07,0-0.04-0.06c0.03-0.06,2.32-1.76,2.74-2.07
		C16.16,58.99,16.15,58.95,16.12,58.95z"/>
	<path class="st0" d="M15.67,57.22c-0.35-0.16-2.13-0.86-3.66,1.04c-0.02,0.03-0.01,0.06,0.02,0.08c0.35,0.16,2.17,0.88,3.71-0.78
		c0.02-0.02,0-0.05-0.02-0.05l-2.75,0.6c0,0-0.06-0.02-0.01-0.06c0.04-0.04,2.31-0.67,2.72-0.78
		C15.69,57.26,15.69,57.23,15.67,57.22z"/>
	<path class="st0" d="M18.53,54.78c-0.51-0.4-3.18-2.21-6.39,0.34c-0.04,0.03-0.04,0.1,0,0.14c0.51,0.39,3.23,2.26,6.38,0.1
		c0.04-0.02,0.02-0.08-0.02-0.08l-4.74-0.04c0,0-0.09-0.05,0-0.1c0.08-0.04,4.04-0.23,4.76-0.27C18.54,54.86,18.56,54.8,18.53,54.78
		z"/>
	<path class="st0" d="M22.9,48.63c-0.33-0.35-2.05-1.99-4.7-0.52c-0.04,0.02-0.04,0.07-0.02,0.1c0.32,0.35,2.08,2.03,4.64,0.84
		c0.03-0.01,0.02-0.06-0.01-0.06l-3.45-0.6c0,0-0.06-0.05,0.01-0.08c0.06-0.02,2.97,0.32,3.5,0.37
		C22.91,48.68,22.92,48.65,22.9,48.63z"/>
</g>
</svg>
