<?xml version="1.0" encoding="UTF-8"?>
<svg id="Icons" xmlns="http://www.w3.org/2000/svg" viewBox="0 0 64 64">
  <defs>
    <style>
      .cls-1 {
        fill: none;
      }

      .cls-2 {
        fill: #2d2e2d;
      }
    </style>
  </defs>
  <rect class="cls-1" width="64" height="64"/>
  <g>
    <path class="cls-2" d="m32.72,29.62c.4-.21.82-.4,1.24-.57.42-.17.85-.32,1.29-.45.08-.02.14-.06.18-.11.04-.05.08-.12.09-.2l.18-1.06c.08-.46.31-.86.65-1.15.34-.28.77-.45,1.24-.45h3.91c.47,0,.9.17,1.24.45.34.28.57.68.65,1.15l.19,1.12c.01.08.04.15.09.2.04.05.1.09.18.11h0c.42.13.85.29,1.28.47.43.18.84.38,1.24.59.07.04.14.05.21.05.07,0,.14-.03.2-.08l.87-.62c.38-.27.83-.39,1.27-.35.44.04.86.22,1.19.56.15.15,2.77,2.76,2.77,2.77.33.33.52.76.56,1.19.04.44-.08.89-.35,1.27l-.66.92c-.05.06-.07.13-.08.2,0,.07.01.14.05.21h0c.22.42.41.83.58,1.24.17.42.32.85.45,1.29.02.07.06.14.11.18.05.05.12.08.2.09l1.06.18c.46.08.86.31,1.15.65.28.34.45.77.45,1.24v3.91c0,.47-.17.9-.45,1.24-.28.34-.68.57-1.15.65l-1.12.19c-.08.01-.15.04-.2.09-.05.04-.09.1-.11.18-.14.43-.29.86-.47,1.28-.18.43-.38.84-.59,1.24-.04.07-.05.14-.05.21,0,.07.03.14.08.2l.62.87c.27.38.39.83.35,1.27-.04.44-.22.86-.56,1.19,0,0-2.51,2.51-2.77,2.77-.34.33-.76.52-1.2.56-.44.04-.89-.08-1.27-.35l-.93-.66c-.06-.05-.13-.07-.2-.08-.07,0-.14.01-.21.05-.4.21-.82.4-1.24.57-.42.17-.85.32-1.29.45-.07.02-.14.06-.18.11h0s-.07.12-.09.2l-.18,1.06c-.08.46-.31.86-.65,1.15-.34.28-.77.45-1.24.45h-3.91c-.47,0-.9-.17-1.24-.45-.34-.28-.57-.68-.65-1.15l-.19-1.12c-.01-.08-.04-.15-.09-.2-.04-.05-.1-.09-.18-.11-.43-.14-.85-.29-1.28-.47-.43-.18-.84-.38-1.24-.59-.07-.04-.14-.05-.21-.05-.07,0-.14.03-.2.08l-.87.62c-.38.27-.83.39-1.27.35-.44-.04-.86-.22-1.19-.56l-2.77-2.77c-.33-.33-.52-.76-.56-1.19-.04-.44.08-.89.35-1.27l.66-.93c.05-.06.07-.13.08-.2,0-.07-.01-.14-.05-.21h0c-.21-.4-.4-.82-.57-1.24-.17-.42-.32-.85-.45-1.29-.02-.07-.06-.14-.11-.18-.05-.05-.12-.08-.2-.09l-1.06-.18c-.46-.08-.86-.31-1.15-.65-.28-.34-.45-.77-.45-1.24v-3.91c0-.47.17-.9.45-1.24.28-.34.68-.57,1.15-.65l1.12-.19c.08-.01.15-.04.2-.09.05-.04.09-.1.11-.18.13-.43.29-.86.47-1.28.18-.43.38-.84.59-1.24l1.34.72c-.2.37-.38.74-.53,1.11-.15.36-.29.75-.42,1.15-.11.35-.31.65-.57.87-.26.23-.58.38-.94.44l-1.12.19c-.1.02-.18.06-.23.13-.06.07-.09.15-.09.25v3.91c0,.1.03.19.09.25.06.07.14.11.23.13l1.06.18c.37.06.69.22.95.45.26.23.46.54.57.89.12.39.25.78.41,1.15.15.38.33.75.52,1.11h0c.17.33.24.67.22,1.02-.02.35-.14.68-.36.98l-.66.93c-.06.08-.08.17-.07.26,0,.09.05.18.11.24l2.77,2.76c.07.07.15.1.24.11.09,0,.18-.02.26-.07l.87-.62c.3-.21.64-.33.99-.36.35-.02.7.05,1.03.23.37.2.74.38,1.11.53.36.15.75.29,1.15.42h0c.35.11.64.31.87.57.23.26.38.58.44.94l.19,1.12c.02.1.06.18.13.23.07.06.15.09.25.09h3.91c.1,0,.19-.03.25-.09.07-.06.11-.14.13-.23l.18-1.06c.06-.36.22-.69.45-.95.23-.26.53-.46.89-.57.39-.12.78-.25,1.15-.41.38-.15.75-.33,1.11-.51.32-.17.67-.24,1.02-.22.35.02.68.14.98.36l.93.66c.08.06.17.08.26.07.09,0,.18-.05.24-.11,0,0,2.51-2.51,2.77-2.77.07-.07.11-.15.11-.24,0-.09-.02-.18-.07-.26l-.62-.87c-.21-.3-.33-.64-.36-.99-.02-.35.05-.7.23-1.03.2-.37.38-.74.53-1.1.15-.36.3-.75.42-1.15h0c.11-.35.31-.65.57-.88.26-.23.58-.38.94-.44l1.12-.19c.1-.02.18-.06.23-.13.06-.07.09-.15.09-.25v-3.91c0-.1-.03-.19-.09-.25-.06-.07-.14-.11-.23-.13l-1.06-.18c-.37-.06-.69-.22-.95-.45-.26-.23-.46-.54-.57-.89-.12-.39-.25-.78-.41-1.15-.16-.39-.33-.76-.51-1.11h0c-.17-.32-.24-.67-.22-1.02.02-.35.14-.68.36-.98l.66-.92c.06-.08.08-.17.07-.26,0-.09-.05-.17-.11-.24l-2.77-2.77c-.07-.07-.15-.1-.24-.11-.09,0-.18.02-.26.07l-.87.62c-.3.21-.64.33-.99.36-.35.02-.7-.05-1.03-.23-.37-.2-.74-.38-1.11-.53-.36-.15-.74-.29-1.15-.42-.35-.11-.64-.31-.87-.57-.23-.26-.38-.58-.44-.94l-.19-1.12c-.02-.1-.06-.18-.13-.23-.07-.06-.15-.09-.25-.09h-3.91c-.1,0-.19.03-.25.09-.07.06-.11.14-.13.23l-.18,1.06c-.06.37-.22.69-.45.95h0c-.23.26-.54.46-.89.57-.39.12-.78.25-1.15.41-.38.15-.75.33-1.11.52l-.7-1.35h0Z"/>
    <path class="cls-2" d="m39.45,35.26c2.02,0,3.84.82,5.16,2.14,1.32,1.32,2.14,3.15,2.14,5.16s-.82,3.84-2.14,5.16c-1.32,1.32-3.15,2.14-5.16,2.14s-3.84-.82-5.16-2.14c-1.32-1.32-2.14-3.15-2.14-5.16s.82-3.84,2.14-5.16c1.32-1.32,3.15-2.14,5.16-2.14Zm4.08,3.22c-1.04-1.04-2.49-1.69-4.08-1.69s-3.04.65-4.08,1.69c-1.04,1.04-1.69,2.49-1.69,4.08s.65,3.04,1.69,4.08c1.04,1.04,2.49,1.69,4.08,1.69s3.04-.65,4.08-1.69,1.69-2.49,1.69-4.08-.65-3.04-1.69-4.08Z"/>
    <path class="cls-2" d="m21.47,4.5c3.83,0,7.29,1.55,9.8,4.06s4.06,5.97,4.06,9.8c0,2.13-.48,4.15-1.34,5.96-.83,1.74-2.01,3.27-3.45,4.52l1.24,6.87-9.07-3.54c-.17.02-.35.03-.52.04h0c-.26.01-.5.02-.71.02-3.83,0-7.29-1.55-9.8-4.06-2.51-2.51-4.06-5.97-4.06-9.8s1.55-7.29,4.06-9.8c2.51-2.51,5.97-4.06,9.8-4.06h0Zm8.72,5.14c-2.23-2.23-5.31-3.61-8.72-3.61s-6.49,1.38-8.72,3.61c-2.23,2.23-3.61,5.31-3.61,8.72s1.38,6.49,3.61,8.72c2.23,2.23,5.31,3.61,8.72,3.61.24,0,.45,0,.63-.01.21-.01.42-.03.63-.05l.18-.02,6.87,2.68-.92-5.06.35-.28c1.42-1.15,2.58-2.61,3.38-4.29.77-1.61,1.2-3.4,1.2-5.3,0-3.41-1.38-6.49-3.61-8.72Z"/>
    <path class="cls-2" d="m15,15.83c0-1.78.72-3.4,1.89-4.57,1.17-1.17,2.79-1.89,4.57-1.89s3.4.72,4.57,1.89,1.89,2.79,1.89,4.57c0,1.47-.49,2.83-1.33,3.92-.85,1.11-2.05,1.94-3.44,2.32-.28.08-.52.24-.68.45-.16.21-.25.48-.25.78v1.94h-1.53v-1.94c0-.64.21-1.22.57-1.7.36-.48.88-.83,1.49-1,1.06-.29,1.98-.92,2.63-1.77.63-.83,1.01-1.87,1.01-2.99,0-1.36-.55-2.6-1.45-3.49-.89-.89-2.13-1.45-3.49-1.45s-2.6.55-3.49,1.45-1.45,2.13-1.45,3.49c0,0-1.53,0-1.53,0Z"/>
    <polygon class="cls-2" points="22.23 26.45 22.23 28.02 20.7 28.02 20.7 26.45 22.23 26.45"/>
  </g>
</svg>