<?xml version="1.0" encoding="UTF-8"?>
<svg id="Layer_1" xmlns="http://www.w3.org/2000/svg" width="104" height="52" version="1.1" viewBox="0 0 104 52">
  <!-- Generator: Adobe Illustrator 29.6.1, SVG Export Plug-In . SVG Version: 2.1.1 Build 9)  -->
  <defs>
    <style>
      .st0 {
        fill: #6b9f50;
      }

      .st1 {
        fill: #7b8737;
      }

      .st2 {
        fill: #41813d;
      }

      .st3 {
        fill: #6dbd47;
      }

      .st4 {
        fill: #6d9944;
      }

      .st5 {
        fill: #5c8e3f;
      }

      .st6 {
        fill: #55b856;
      }

      .st7 {
        fill: #275026;
      }

      .st8 {
        fill: #306733;
      }

      .st9 {
        fill: #fff;
      }

      .st10 {
        fill: #879d3b;
      }

      .st11 {
        fill: #549041;
      }

      .st12 {
        fill: #b7ba34;
      }

      .st13 {
        fill: #c6c84b;
      }

      .st14 {
        fill: #4eb161;
      }

      .st15 {
        fill: #6bbd49;
      }

      .st16 {
        fill: #325f2e;
      }

      .st17 {
        fill: #97a439;
      }
    </style>
  </defs>
  <g>
    <g>
      <polygon class="st3" points="4.44 36.74 4.44 45.01 9.05 44.36 4.44 36.74"/>
      <path class="st11" d="M4.44,45.01v3.58c0,.44.36.8.8.8h1.53l2.27-5.03-4.61.64Z"/>
      <path class="st5" d="M8.66,15.11l-3.96,3.67c-.16.15-.26.37-.26.59v1.3l5.2.27-.99-5.82Z"/>
      <polygon class="st2" points="4.44 20.66 4.44 29.19 9.65 20.93 4.44 20.66"/>
      <polygon class="st3" points="6.78 49.39 9.98 49.39 9.05 44.36 6.78 49.39"/>
      <polygon class="st4" points="11.32 32.53 4.44 32.8 4.44 36.74 9.05 44.36 11.32 32.53"/>
      <polygon class="st11" points="9.65 20.93 4.44 29.19 4.44 32.8 11.32 32.53 9.65 20.93"/>
      <polygon class="st2" points="9.65 20.93 11.32 32.53 16.7 24.88 9.65 20.93"/>
      <polygon class="st7" points="18.49 6.47 17.88 6.57 8.66 15.11 9.65 20.93 18.49 6.47"/>
      <polygon class="st2" points="18.19 6.28 17.88 6.57 18.49 6.47 18.19 6.28"/>
      <polygon class="st2" points="18.4 6.08 18.19 6.28 18.49 6.47 18.4 6.08"/>
      <polygon class="st3" points="9.05 44.36 9.98 49.39 18.28 49.39 19.45 48.55 9.05 44.36"/>
      <polygon class="st6" points="11.32 32.53 23.63 38.15 16.7 24.88 11.32 32.53"/>
      <polygon class="st11" points="9.05 44.36 23.63 38.15 11.32 32.53 9.05 44.36"/>
      <polygon class="st10" points="19.45 48.55 23.63 38.15 9.05 44.36 19.45 48.55"/>
      <polygon class="st4" points="24.83 16.63 9.65 20.93 16.7 24.88 24.83 16.63"/>
      <polygon class="st16" points="18.49 6.47 9.65 20.93 24.83 16.63 18.49 6.47"/>
      <polygon class="st17" points="18.28 49.39 19.9 49.39 19.45 48.55 18.28 49.39"/>
      <path class="st2" d="M23.29,2.95l-.22-.2c-.31-.28-.78-.27-1.08,0l-3.59,3.33.09.38,4.8-3.52Z"/>
      <polygon class="st10" points="16.7 24.88 23.63 38.15 28.42 26.31 16.7 24.88"/>
      <polygon class="st15" points="28.42 26.31 24.83 16.63 16.7 24.88 28.42 26.31"/>
      <polygon class="st10" points="19.45 48.55 23.1 49.39 28.24 49.39 23.63 38.15 19.45 48.55"/>
      <polygon class="st1" points="19.9 49.39 23.1 49.39 19.45 48.55 19.9 49.39"/>
      <polygon class="st7" points="24.83 16.63 31.98 10.71 28.77 7.85 18.49 6.47 24.83 16.63"/>
      <polygon class="st11" points="28.77 7.85 23.29 2.95 18.49 6.47 28.77 7.85"/>
      <polygon class="st0" points="23.63 38.15 36.43 40.06 28.42 26.31 23.63 38.15"/>
      <polygon class="st17" points="23.63 38.15 28.24 49.39 29.72 49.39 36.43 40.06 23.63 38.15"/>
      <polygon class="st17" points="28.42 26.31 36.43 40.06 36.9 24.16 28.42 26.31"/>
      <polygon class="st4" points="37.38 17.35 36.54 14.79 31.98 10.71 24.83 16.63 37.38 17.35"/>
      <polygon class="st16" points="37.38 17.35 24.83 16.63 28.42 26.31 37.38 17.35"/>
      <polygon class="st14" points="36.9 24.16 37.38 17.35 28.42 26.31 36.9 24.16"/>
      <polygon class="st12" points="36.43 40.06 29.72 49.39 39.47 49.39 36.43 40.06"/>
      <polygon class="st16" points="36.43 40.06 41.29 31.2 41.29 27.49 36.9 24.16 36.43 40.06"/>
      <path class="st5" d="M36.9,24.16l4.39-3.74v-1.03c0-.23-.1-.45-.27-.6l-1.8-1.61-1.84.16-.48,6.81Z"/>
      <polygon class="st7" points="41.29 27.49 41.29 20.42 36.9 24.16 41.29 27.49"/>
      <polygon class="st3" points="39.22 17.19 36.54 14.79 37.38 17.35 39.22 17.19"/>
      <polygon class="st8" points="41.29 40.25 41.29 31.2 36.43 40.06 41.29 40.25"/>
      <path class="st13" d="M39.47,49.39h1.01c.44,0,.8-.36.8-.8v-8.33l-4.87-.19,3.05,9.33Z"/>
    </g>
    <g>
      <path class="st9" d="M20.81,49.37c.07-.56,1.94-15.63-8.98-19.59-.02,0-.01-.03,0-.03,1.06.24,5.84,1.45,8.22,4.68.01.01.03,0,.03-.01-.26-.82-2.44-7.35-7.02-12.34-.01-.02,0-.04.02-.02,1.32,1.26,6.11,6.06,8.14,10.81,0,.01.03.01.03,0,.05-.73.57-8.14.74-14.91.03-1.33-.11-2.62-.24-3.87,0-.02.03-.02.03,0,.15.51.59,2.15.82,3.96.28,2.22.58,4.71.61,5.71,0,.05.06.06.08.02.39-.66,2.15-3.52,4.4-5.35.01-.01.04,0,.02.02-.55.63-2.67,3.21-3.91,7.3-.95,3.1-.51,6.75-.59,11.45,0,.02.02.02.03,0,.31-.61,3.13-5.89,9.77-11.31.01-.01.04,0,.02.02-.87,1.03-6.51,7.83-6.98,11.31,0,.01.02.02.03.01.36-.34,3.83-3.53,7.61-4.2.02,0,.03.02,0,.03-1.32.53-10.71,4.73-9.46,16.3,0,0,0,.02-.02.02h-3.39s-.02,0-.02-.02Z"/>
      <path class="st9" d="M25.51,42.57c.45-.37,2.81-2.07,5.8.11.04.03.04.09,0,.12-.45.36-2.85,2.12-5.77.28-.03-.02-.02-.07.02-.08l4.29-.18s.08-.05,0-.09c-.07-.04-3.66-.08-4.32-.1-.04,0-.05-.05-.02-.07Z"/>
      <path class="st9" d="M26.01,40.22c.32-.48,2.05-2.77,5.5-1.56.05.02.07.07.04.11-.32.47-2.08,2.83-5.36,1.93-.04-.01-.04-.06,0-.08l4-1.41s.06-.07-.03-.09c-.08-.01-3.48.97-4.1,1.15-.03,0-.06-.03-.04-.06Z"/>
      <path class="st9" d="M29.66,36.41c.51-.27,3.14-1.47,5.58,1.26.03.04.02.1-.02.12-.51.27-3.19,1.5-5.64-.87-.03-.03,0-.08.03-.07l4.19.67s.08-.03.02-.09c-.06-.05-3.53-.81-4.16-.95-.04,0-.04-.05,0-.07Z"/>
      <path class="st9" d="M32.5,34.43c.5-.28,3.1-1.51,5.59,1.17.03.04.02.1-.02.12-.5.27-3.15,1.55-5.63-.78-.03-.03,0-.08.03-.07l4.19.61s.08-.04.01-.09c-.06-.05-3.53-.75-4.16-.88-.04,0-.04-.05-.01-.07Z"/>
      <path class="st9" d="M34.71,32.53c.36-.41,2.28-2.33,5.34-.74.04.02.05.08.02.11-.36.4-2.31,2.38-5.25,1.1-.03-.01-.03-.07,0-.07l3.91-.79s.06-.06-.02-.09c-.07-.02-3.38.45-3.98.54-.03,0-.05-.03-.03-.06Z"/>
      <path class="st9" d="M34.87,30.34c.22-.5,1.46-2.91,4.86-2.33.05,0,.07.06.05.1-.22.49-1.47,2.97-4.67,2.65-.04,0-.05-.05-.02-.07l3.49-1.95s.04-.08-.04-.08c-.07,0-3.08,1.46-3.62,1.72-.03.01-.06-.02-.05-.05Z"/>
      <path class="st9" d="M31.08,28.76c.32-.44,2.07-2.51,5.26-1.18.04.02.06.07.03.11-.32.43-2.1,2.56-5.14,1.54-.03-.01-.03-.06,0-.07l3.83-1.12s.06-.06-.02-.08c-.07-.02-3.33.73-3.92.87-.03,0-.06-.03-.04-.06Z"/>
      <path class="st9" d="M28.56,34.01c-.04-.48-.09-2.86,2.78-3.82.04-.01.08.01.08.05.04.47.1,2.91-2.5,3.99-.03.01-.06-.02-.04-.05l1.88-2.96s0-.08-.06-.04c-.06.03-1.77,2.41-2.08,2.84-.02.02-.05.01-.06-.02Z"/>
      <path class="st9" d="M32.22,32.71c-.04-.3-.15-1.8,1.63-2.51.02,0,.05,0,.06.03.04.3.16,1.83-1.44,2.6-.02,0-.04-.01-.03-.03l1.09-1.93s0-.05-.04-.02c-.04.02-1.03,1.58-1.22,1.86-.01.02-.03.01-.04,0Z"/>
      <path class="st9" d="M25.02,46.22c.21.08,1.24.54,1.07,1.96,0,.02-.02.03-.04.03-.21-.08-1.26-.54-1.2-1.87,0-.02.02-.02.03,0l.89,1.4s.03.02.03-.02c0-.03-.67-1.24-.8-1.46,0-.01,0-.03.02-.02Z"/>
      <path class="st9" d="M25.62,44.23c.59-.02,3.56.04,4.61,3.66.01.05-.02.1-.07.1-.59.02-3.62-.03-4.83-3.32-.01-.04.03-.07.06-.05l3.58,2.49s.09,0,.06-.08c-.03-.07-2.91-2.32-3.43-2.74-.03-.02-.01-.07.02-.07Z"/>
      <path class="st9" d="M29.73,44.65c.51-.03,3.07-.03,4.04,3.07.01.04-.02.09-.06.09-.51.03-3.13.04-4.23-2.78-.01-.03.02-.06.05-.04l3.13,2.09s.08,0,.05-.07c-.03-.06-2.55-1.95-3-2.3-.03-.02-.01-.06.02-.06Z"/>
      <path class="st9" d="M31.99,43.43c.43-.18,2.64-.92,4.38,1.48.02.03.01.08-.03.09-.43.17-2.68.94-4.45-1.16-.02-.02,0-.06.03-.05l3.31.89s.07-.02.02-.07c-.04-.04-2.77-.94-3.26-1.11-.03,0-.03-.05,0-.06Z"/>
      <path class="st9" d="M30.91,41.09c.06-.31.45-1.82,2.43-1.92.03,0,.05.02.04.05-.06.3-.45,1.85-2.28,2.07-.02,0-.03-.02-.02-.04l1.71-1.53s.01-.05-.03-.04c-.04,0-1.54,1.21-1.81,1.42-.02.01-.04,0-.03-.02Z"/>
      <path class="st9" d="M32.26,41.98c.2-.33,1.3-1.9,3.63-1.16.03,0,.05.05.03.08-.2.32-1.32,1.94-3.53,1.41-.03,0-.03-.04,0-.05l2.63-1.03s.04-.05-.02-.06c-.05,0-2.3.73-2.71.86-.02,0-.04-.02-.03-.04Z"/>
      <path class="st9" d="M35.07,39.15c.34-.36,2.13-2.03,4.84-.49.04.02.05.07.02.1-.34.35-2.16,2.07-4.78.82-.03-.01-.02-.06,0-.07l3.56-.59s.06-.05-.01-.08c-.06-.02-3.06.3-3.61.36-.03,0-.05-.03-.03-.06Z"/>
      <path class="st9" d="M36.85,37.33c.17-.26,1.12-1.5,2.98-.82.03,0,.04.04.02.06-.17.26-1.13,1.53-2.91,1.02-.02,0-.02-.04,0-.04l2.17-.75s.03-.04-.02-.05c-.04,0-1.89.51-2.22.61-.02,0-.03-.02-.02-.03Z"/>
      <path class="st9" d="M37.47,33.96c.26-.09,1.58-.47,2.54.98.01.02,0,.05-.02.06-.26.09-1.6.49-2.59-.8-.01-.01,0-.04.02-.03l1.93.61s.04-.01.01-.04c-.03-.03-1.6-.62-1.89-.73-.02,0-.02-.03,0-.03Z"/>
      <path class="st9" d="M36.75,40.89c.21-.23,1.35-1.29,3.08-.32.02.01.03.05.01.06-.21.22-1.37,1.32-3.04.53-.02,0-.02-.04,0-.04l2.26-.38s.04-.03,0-.05c-.04-.01-1.95.19-2.29.23-.02,0-.03-.02-.02-.04Z"/>
      <path class="st9" d="M34.22,45.88c.34-.02,2.03,0,2.66,2.06,0,.03-.01.06-.04.06-.34.02-2.07,0-2.78-1.86,0-.02.02-.04.04-.03l2.06,1.4s.05,0,.03-.04c-.02-.04-1.68-1.31-1.98-1.54-.02-.01,0-.04.01-.04Z"/>
      <path class="st9" d="M36.91,45.78c.35-.02,2.11-.03,2.79,2.09,0,.03-.01.06-.04.06-.35.02-2.15.04-2.92-1.89,0-.02.02-.04.04-.03l2.16,1.42s.06,0,.03-.05c-.02-.04-1.76-1.33-2.07-1.57-.02-.01,0-.04.01-.04Z"/>
      <path class="st9" d="M37.56,44.62c.26-.12,1.61-.65,2.77.79.02.02,0,.05-.01.06-.26.12-1.64.67-2.81-.59-.01-.01,0-.04.02-.03l2.09.45s.04-.02.01-.05c-.03-.03-1.75-.5-2.06-.59-.02,0-.02-.03,0-.04Z"/>
      <path class="st9" d="M35.48,42.6c.39-.3,2.41-1.67,4.84.26.03.03.03.08,0,.1-.38.3-2.44,1.71-4.83.08-.03-.02-.01-.06.02-.06l3.59-.03s.07-.04,0-.08c-.06-.03-3.06-.18-3.6-.2-.03,0-.04-.04-.02-.06Z"/>
      <path class="st9" d="M37.4,27.18c.13-.19.84-1.08,2.18-.56.02,0,.03.03.01.05-.13.18-.85,1.1-2.13.7-.01,0-.02-.03,0-.03l1.59-.51s.02-.03-.01-.03c-.03,0-1.38.35-1.63.41-.01,0-.02-.01-.02-.02Z"/>
      <path class="st9" d="M33.58,25.8c.38-.48,2.4-2.77,5.94-1.18.05.02.06.08.03.12-.37.48-2.44,2.82-5.83,1.58-.04-.01-.04-.07,0-.08l4.34-1.15s.07-.07-.02-.1c-.08-.02-3.76.73-4.43.87-.04,0-.06-.04-.04-.07Z"/>
      <path class="st9" d="M37.93,23.44c.09-.21.58-1.23,2.01-1.02.02,0,.03.02.02.04-.09.21-.59,1.26-1.92,1.16-.02,0-.02-.02,0-.03l1.44-.85s.02-.03-.02-.03c-.03,0-1.27.64-1.5.76-.01,0-.03,0-.02-.02Z"/>
      <path class="st9" d="M34.44,23.78c.07-.66.61-3.93,4.78-4.52.06,0,.11.04.1.1-.07.65-.61,4-4.44,4.82-.04,0-.08-.04-.05-.08l3.33-3.57s.02-.1-.08-.07c-.09.03-3.03,2.85-3.57,3.36-.03.03-.08,0-.07-.04Z"/>
      <path class="st9" d="M23.74,34.14c-.16-.39-.83-2.4,1.35-3.97.03-.02.07,0,.09.02.16.39.85,2.44-1.07,4.04-.02.02-.06,0-.05-.03l.81-3s-.02-.06-.07-.02c-.04.04-.86,2.51-1.01,2.95,0,.03-.04.03-.05,0Z"/>
      <path class="st9" d="M23.61,29.72c-.08-.39-.39-2.35,1.88-3.46.03-.01.07,0,.08.04.08.38.4,2.39-1.63,3.57-.02.01-.05-.01-.04-.04l1.23-2.65s0-.06-.06-.03c-.04.03-1.2,2.18-1.41,2.57-.01.02-.04.02-.05,0Z"/>
      <path class="st9" d="M26.38,30.88c-.26-.46-1.38-2.84,1.07-5.1.03-.03.09-.02.11.02.25.46,1.41,2.88-.72,5.15-.02.03-.07,0-.06-.03l.56-3.83s-.03-.08-.08-.01c-.04.06-.69,3.23-.81,3.8,0,.03-.05.04-.07,0Z"/>
      <path class="st9" d="M29.1,28.18c-.22-.51-1.18-3.11,1.61-5.26.04-.03.09-.02.11.03.22.5,1.21,3.16-1.24,5.34-.03.02-.07,0-.07-.04l.95-3.97s-.03-.08-.09-.02c-.05.05-1.03,3.32-1.21,3.92-.01.03-.06.04-.07,0Z"/>
      <path class="st9" d="M32,25.01c-.25-.55-1.33-3.36,1.66-5.73.04-.03.1-.02.12.03.25.54,1.36,3.41-1.26,5.81-.03.03-.08,0-.07-.04l.96-4.32s-.03-.09-.09-.02c-.06.06-1.07,3.62-1.25,4.27-.01.04-.06.04-.08,0Z"/>
      <path class="st9" d="M35.08,20c-.08-.35-.36-2.11,1.66-3.12.03-.01.06,0,.07.03.08.34.37,2.14-1.44,3.21-.02.01-.05,0-.04-.03l1.08-2.38s0-.06-.05-.02c-.04.03-1.06,1.97-1.24,2.32-.01.02-.04.02-.04,0Z"/>
      <path class="st9" d="M24.79,25.04c.24-.47,1.59-2.72,4.84-1.94.04.01.07.06.05.1-.24.46-1.61,2.77-4.67,2.26-.03,0-.04-.06-.01-.07l3.49-1.66s.05-.07-.04-.08c-.07,0-3.06,1.21-3.61,1.43-.03.01-.06-.02-.04-.05Z"/>
      <path class="st9" d="M25.83,22.26c.21-.22,1.33-1.27,3.02-.31.02.01.03.04.01.06-.21.22-1.35,1.3-2.98.52-.02,0-.02-.04,0-.04l2.22-.37s.04-.03,0-.05c-.04-.01-1.91.19-2.25.23-.02,0-.03-.02-.02-.03Z"/>
      <path class="st9" d="M27.02,20.17c.37-.31,2.28-1.76,4.77.01.03.02.04.07,0,.1-.36.31-2.32,1.8-4.74.32-.03-.02-.02-.06.01-.06l3.53-.21s.06-.04,0-.08c-.06-.03-3.02-.02-3.55-.02-.03,0-.04-.04-.02-.06Z"/>
      <path class="st9" d="M28.7,18.07c.37-.6,2.42-3.44,6.65-2.05.06.02.08.09.05.14-.37.59-2.45,3.51-6.47,2.49-.05-.01-.05-.08,0-.09l4.82-1.82s.07-.09-.04-.11c-.09-.02-4.21,1.28-4.96,1.51-.04.01-.08-.03-.05-.07Z"/>
      <path class="st9" d="M27.95,16.96c-.16-.56-.77-3.42,2.46-5.25.04-.02.1,0,.11.05.16.56.8,3.48-2.08,5.39-.03.02-.08-.01-.06-.05l1.58-4s-.02-.09-.09-.04c-.06.05-1.57,3.32-1.84,3.91-.02.03-.06.03-.07,0Z"/>
      <path class="st9" d="M30.88,15.27c.05-.28.38-1.68,2.19-1.81.02,0,.05.02.04.04-.05.28-.38,1.71-2.05,1.95-.02,0-.03-.02-.02-.03l1.54-1.44s.01-.04-.03-.03c-.04,0-1.39,1.14-1.64,1.35-.01.01-.03,0-.03-.02Z"/>
      <path class="st9" d="M23.7,20.99c-.25-.48-1.37-2.97,1.22-5.27.04-.03.09-.02.11.02.25.48,1.4,3.02-.85,5.32-.03.03-.07,0-.07-.03l.66-3.95s-.03-.08-.09-.02c-.05.06-.78,3.33-.92,3.92,0,.03-.05.04-.07,0Z"/>
      <path class="st9" d="M26.42,18.18c-.28-.34-1.57-2.13.11-4.38.02-.03.07-.03.09,0,.28.34,1.6,2.17.19,4.36-.02.02-.06.01-.06-.01l-.12-3.24s-.04-.06-.07,0c-.03.05-.08,2.77-.09,3.26,0,.03-.04.04-.05.02Z"/>
      <path class="st9" d="M27.77,12.59c-.07-.28-.33-1.68,1.27-2.53.02-.01.05,0,.06.02.07.27.34,1.71-1.09,2.6-.02.01-.04,0-.03-.02l.82-1.93s0-.04-.04-.02c-.03.02-.81,1.59-.95,1.88,0,.02-.03.01-.04,0Z"/>
      <path class="st9" d="M22.96,14.77c-.08-.77-.26-4.65,4.3-6.53.06-.03.13.01.14.08.08.76.28,4.73-3.84,6.77-.05.02-.1-.03-.07-.07l2.89-5.02s0-.12-.11-.06c-.09.05-2.73,4.12-3.22,4.85-.03.04-.09.03-.09-.02Z"/>
      <path class="st9" d="M24.24,9.3c-.05-.3-.22-1.78,1.52-2.56.02-.01.05,0,.06.03.05.29.23,1.82-1.33,2.65-.02,0-.04,0-.03-.03l1-1.96s0-.05-.04-.02c-.03.02-.96,1.61-1.14,1.9,0,.02-.03.01-.04,0Z"/>
      <path class="st9" d="M20.16,9.89c-.29-.08-1.68-.56-1.63-2.44,0-.03.03-.04.05-.04.28.08,1.72.57,1.79,2.31,0,.02-.03.03-.04.01l-1.32-1.73s-.04-.02-.04.03c0,.04,1.03,1.55,1.21,1.82.01.02,0,.03-.02.03Z"/>
      <path class="st9" d="M21.83,12.23c-.44-.62-2.47-3.87.4-7.8.04-.05.12-.05.15,0,.44.62,2.53,3.93.1,7.78-.03.04-.09.02-.09-.03l-.04-5.79s-.06-.11-.12,0c-.05.09-.27,4.93-.32,5.81,0,.05-.06.07-.09.03Z"/>
      <path class="st9" d="M21.09,14.7c-.62-.2-3.66-1.38-4-5.51,0-.06.04-.1.1-.08.61.2,3.73,1.39,4.3,5.24,0,.04-.05.06-.07.03l-3.18-3.92s-.1-.04-.07.06c.02.09,2.52,3.49,2.97,4.11.03.03,0,.08-.04.06Z"/>
      <path class="st9" d="M17.5,13.18c-.33-.06-1.95-.49-2.05-2.62,0-.03.02-.05.05-.05.33.07,1.99.49,2.22,2.46,0,.02-.03.04-.04.02l-1.64-1.84s-.05-.02-.04.04c0,.04,1.29,1.66,1.52,1.96.01.02,0,.04-.02.04Z"/>
      <path class="st9" d="M20.85,18.52c-.63-.1-3.76-.79-4.1-4.84,0-.05.04-.1.1-.09.63.1,3.82.8,4.41,4.53,0,.04-.05.07-.08.04l-3.26-3.39s-.1-.03-.07.07c.02.08,2.58,3.07,3.04,3.62.03.03,0,.08-.04.07Z"/>
      <path class="st9" d="M15.79,16.64c-.43-.26-2.5-1.7-1.54-4.75.01-.04.06-.06.1-.04.43.26,2.55,1.72,1.86,4.62,0,.03-.06.04-.07,0l-1.36-3.44s-.06-.05-.08.03c-.01.07.96,3.01,1.14,3.54,0,.03-.02.06-.05.04Z"/>
      <path class="st9" d="M20.55,23.49c-.59-.21-3.43-1.45-3.01-5.38,0-.05.06-.09.11-.07.58.21,3.5,1.47,3.36,5.14,0,.04-.06.06-.08.02l-2.48-3.84s-.09-.04-.08.05c0,.08,1.89,3.41,2.23,4.01.02.03-.01.07-.05.06Z"/>
      <path class="st9" d="M19.86,29.01c-.47-.36-2.73-2.32-1.21-5.79.02-.05.08-.06.12-.03.47.36,2.78,2.35,1.6,5.67-.01.04-.07.04-.08,0l-1.16-4.23s-.07-.06-.09.02c-.02.08.75,3.66.89,4.32,0,.04-.03.06-.06.04Z"/>
      <path class="st9" d="M16.78,25.37c-.21-.31-1.13-1.92.58-3.54.02-.02.06-.02.08,0,.2.31,1.16,1.95-.32,3.57-.02.02-.05,0-.05-.02l.26-2.65s-.03-.05-.06,0c-.03.04-.38,2.24-.44,2.64,0,.02-.03.03-.05,0Z"/>
      <path class="st9" d="M15.03,23.04c-.32-.48-1.75-2.99.74-5.68.03-.04.09-.03.12,0,.31.48,1.79,3.04-.35,5.7-.02.03-.08.01-.07-.03l.29-4.24s-.04-.08-.09,0c-.04.06-.48,3.59-.57,4.23,0,.04-.05.05-.07.02Z"/>
      <path class="st9" d="M13.35,20.59c-.49-.42-2.84-2.66-1.49-6.55.02-.05.08-.07.12-.03.49.41,2.89,2.7,1.88,6.43-.01.04-.07.04-.08,0l-1.37-4.79s-.07-.07-.09.03c-.02.09.93,4.15,1.1,4.88,0,.04-.03.07-.06.04Z"/>
      <path class="st9" d="M11.5,20.92c-.52-.08-3.09-.62-3.4-3.94,0-.04.04-.08.08-.08.51.08,3.14.62,3.65,3.68,0,.03-.04.06-.06.03l-2.7-2.76s-.08-.02-.06.06c.02.07,2.14,2.5,2.53,2.94.02.02,0,.06-.03.06Z"/>
      <path class="st9" d="M13.37,14.83c-.17-.1-.98-.65-.62-1.84,0-.02.02-.02.04-.02.17.1,1,.66.74,1.79,0,.01-.02.01-.03,0l-.55-1.34s-.03-.02-.03.01c0,.03.39,1.17.46,1.37,0,.01,0,.02-.02.02Z"/>
      <path class="st9" d="M10.93,17.48c-.22-.09-1.32-.59-1.13-2.1,0-.02.02-.03.04-.03.22.09,1.34.59,1.26,2.01,0,.02-.02.02-.03,0l-.93-1.5s-.03-.02-.03.02c0,.03.71,1.33.83,1.57,0,.01,0,.03-.02.02Z"/>
      <path class="st9" d="M8.69,20.37c-.29.1-1.78.53-2.87-1.12-.01-.02,0-.05.02-.06.29-.1,1.81-.54,2.93.91.01.02,0,.04-.02.03l-2.17-.69s-.05.01-.02.05c.03.03,1.81.71,2.13.84.02,0,.02.03,0,.04Z"/>
      <path class="st9" d="M11.96,22.83c-.53.34-3.3,1.87-6.21-.89-.04-.04-.03-.1.01-.13.53-.34,3.35-1.92,6.23.46.03.03.01.08-.03.08l-4.63-.37s-.09.05,0,.1c.07.05,3.92.58,4.62.68.04,0,.05.06.02.08Z"/>
      <path class="st9" d="M9.9,25.77c-.46.16-2.78.83-4.47-1.73-.02-.03,0-.08.03-.1.45-.16,2.82-.85,4.56,1.41.02.03,0,.06-.04.05l-3.38-1.07s-.07.02-.02.07c.04.05,2.82,1.1,3.32,1.3.03.01.03.05,0,.06Z"/>
      <path class="st9" d="M14.26,24.91c-.39.23-2.38,1.27-4.39-.76-.03-.03-.02-.07.01-.09.38-.23,2.42-1.3,4.42.45.02.02,0,.06-.02.06l-3.29-.36s-.06.03,0,.07c.05.04,2.78.49,3.27.57.03,0,.03.04,0,.06Z"/>
      <path class="st9" d="M15.71,26.65c-.23.15-1.45.8-2.71-.42-.02-.02-.01-.05,0-.06.23-.14,1.47-.82,2.72.23.01.01,0,.04-.01.03l-2.02-.18s-.04.02,0,.04c.03.02,1.71.27,2.02.32.02,0,.02.02,0,.03Z"/>
      <path class="st9" d="M13.2,29.6c-.44-.1-2.6-.71-2.67-3.57,0-.04.03-.07.07-.06.44.1,2.65.72,2.9,3.36,0,.03-.04.05-.06.02l-2.14-2.51s-.07-.02-.06.05c.01.06,1.68,2.26,1.98,2.66.02.02,0,.05-.03.05Z"/>
      <path class="st9" d="M17.6,31.13c-.5-.06-2.96-.51-3.35-3.66,0-.04.03-.08.07-.08.49.06,3.01.51,3.58,3.41,0,.03-.03.06-.06.03l-2.65-2.55s-.08-.02-.06.06c.02.07,2.11,2.32,2.49,2.74.02.02,0,.06-.03.06Z"/>
      <path class="st9" d="M10.53,29.15c-.51.17-3.11.86-4.91-2.03-.02-.04,0-.09.04-.11.51-.17,3.16-.89,5.03,1.68.02.03,0,.07-.04.06l-3.73-1.27s-.08.02-.03.08c.05.06,3.1,1.3,3.66,1.52.03.01.03.06,0,.07Z"/>
      <path class="st9" d="M7.68,29.82c-.18.13-1.11.75-2.21-.15-.01-.01-.01-.04,0-.05.18-.13,1.13-.77,2.21,0,.01,0,0,.03,0,.03h-1.65s-.03.01,0,.03c.03.02,1.4.1,1.65.12.01,0,.02.02,0,.03Z"/>
      <path class="st9" d="M12.69,31.4c-.48.41-3.03,2.29-6.27-.08-.04-.03-.05-.1,0-.13.48-.4,3.07-2.34,6.24-.35.04.02.02.08-.02.08l-4.64.23s-.08.06,0,.1c.08.04,3.96.07,4.67.07.04,0,.06.05.03.07Z"/>
      <path class="st9" d="M16.66,34.14c-.52.39-3.21,2.15-6.37-.44-.04-.04-.04-.1,0-.14.51-.38,3.25-2.2,6.36,0,.04.02.02.08-.02.08l-4.73-.03s-.09.05,0,.1c.08.04,4.03.29,4.74.34.04,0,.05.05.02.08Z"/>
      <path class="st9" d="M9.54,34.17c-.37.16-2.25.83-3.78-1.19-.02-.03-.01-.07.02-.08.36-.16,2.29-.86,3.84.92.02.02,0,.05-.03.05l-2.85-.7s-.06.02-.02.06c.04.04,2.39.76,2.82.9.02,0,.03.04,0,.05Z"/>
      <path class="st9" d="M20.01,42.76c-.42-.37-2.62-2.07-5.55-.08-.04.03-.04.08,0,.12.42.36,2.66,2.12,5.51.46.03-.02.02-.07-.02-.07l-4.1-.32s-.07-.05,0-.09c.07-.03,3.51.04,4.13.05.03,0,.05-.04.02-.06Z"/>
      <path class="st9" d="M19.87,40.39c-.32-.48-2.05-2.77-5.5-1.56-.05.02-.07.07-.04.11.32.47,2.08,2.83,5.36,1.93.04-.01.04-.06,0-.08l-4-1.41s-.06-.07.03-.09c.08-.01,3.48.97,4.1,1.15.03,0,.06-.03.04-.06Z"/>
      <path class="st9" d="M18.77,36.94c-.42-.45-2.66-2.57-6.23-.99-.05.02-.06.08-.03.12.42.44,2.69,2.62,6.14,1.37.04-.01.03-.07,0-.08l-4.57-.99s-.07-.07.02-.09c.08-.02,3.94.61,4.65.72.04,0,.06-.03.04-.06Z"/>
      <path class="st9" d="M20.1,46.33c-.21.09-1.21.61-.97,2.02,0,.02.02.03.04.02.2-.09,1.23-.61,1.1-1.94,0-.02-.02-.02-.03,0l-.81,1.45s-.03.02-.03-.02c0-.03.61-1.28.72-1.5,0-.01,0-.03-.02-.02Z"/>
      <path class="st9" d="M19.54,44.62c-.57-.03-3.4.02-4.42,3.48-.01.05.02.1.07.1.56.02,3.46-.01,4.63-3.15.01-.04-.03-.07-.06-.05l-3.43,2.37s-.09,0-.05-.07c.03-.07,2.79-2.21,3.29-2.6.03-.02.01-.07-.02-.07Z"/>
      <path class="st9" d="M15.67,44.78c-.51-.03-3.07-.03-4.04,3.07-.01.04.02.09.06.09.51.03,3.13.04,4.23-2.78.01-.03-.02-.06-.05-.04l-3.13,2.09s-.08,0-.05-.07c.03-.06,2.55-1.95,3-2.3.03-.02.01-.06-.02-.06Z"/>
      <path class="st9" d="M13.6,43.48c-.43-.18-2.64-.92-4.38,1.48-.02.03-.01.08.03.09.43.17,2.68.94,4.45-1.16.02-.02,0-.06-.03-.05l-3.31.89s-.07-.02-.02-.07c.04-.04,2.77-.94,3.26-1.11.03,0,.03-.05,0-.06Z"/>
      <path class="st9" d="M14.85,41.15c-.05-.28-.41-1.66-2.22-1.75-.02,0-.04.02-.04.05.05.28.41,1.69,2.08,1.89.02,0,.03-.02.02-.03l-1.56-1.4s-.01-.04.03-.03c.04,0,1.41,1.1,1.66,1.3.01.01.03,0,.03-.02Z"/>
      <path class="st9" d="M13.71,41.96c-.22-.36-1.42-2.07-3.96-1.27-.03.01-.05.05-.03.08.22.35,1.44,2.11,3.85,1.53.03,0,.03-.05,0-.06l-2.87-1.12s-.04-.05.02-.06c.06,0,2.5.79,2.95.94.02,0,.05-.02.03-.04Z"/>
      <path class="st9" d="M10.39,39.09c-.31-.38-1.96-2.2-4.78-.88-.04.02-.05.07-.02.1.31.38,1.99,2.24,4.69,1.21.03-.01.03-.06,0-.07l-3.5-.88s-.05-.06.02-.08c.06-.02,3.03.55,3.57.65.03,0,.05-.03.03-.05Z"/>
      <path class="st9" d="M10.81,35.73c-.42-.3-2.61-1.65-5.08.48-.03.03-.03.08,0,.11.42.29,2.65,1.69,5.08-.13.03-.02.01-.07-.02-.07l-3.78.12s-.07-.04,0-.08c.06-.04,3.21-.32,3.78-.37.03,0,.04-.04.02-.06Z"/>
      <path class="st9" d="M8.64,40.79c-.21-.23-1.35-1.29-3.08-.32-.02.01-.03.05-.01.06.21.22,1.37,1.32,3.04.53.02,0,.02-.04,0-.04l-2.26-.38s-.04-.03,0-.05c.04-.01,1.95.19,2.29.23.02,0,.03-.02.02-.04Z"/>
      <path class="st9" d="M11.29,45.81c-.34-.02-2.03,0-2.66,2.06,0,.03.01.06.04.06.34.02,2.07,0,2.78-1.86,0-.02-.02-.04-.04-.03l-2.06,1.4s-.05,0-.03-.04c.02-.04,1.68-1.31,1.98-1.54.02-.01,0-.04-.01-.04Z"/>
      <path class="st9" d="M8.58,45.76c-.35-.02-2.11-.03-2.79,2.09,0,.03.01.06.04.06.35.02,2.15.04,2.92-1.89,0-.02-.02-.04-.04-.03l-2.16,1.42s-.06,0-.03-.05c.02-.04,1.76-1.33,2.07-1.57.02-.01,0-.04-.01-.04Z"/>
      <path class="st9" d="M8.24,44.45c-.26-.12-1.61-.65-2.77.79-.02.02,0,.05.01.06.26.12,1.64.67,2.81-.59.01-.01,0-.04-.02-.03l-2.09.45s-.04-.02-.01-.05c.03-.03,1.75-.5,2.06-.59.02,0,.02-.03,0-.04Z"/>
      <path class="st9" d="M10.4,42.6c-.39-.3-2.41-1.67-4.84.26-.03.03-.03.08,0,.1.38.3,2.44,1.71,4.83.08.03-.02.01-.06-.02-.06l-3.59-.03s-.07-.04,0-.08c.06-.03,3.06-.18,3.6-.2.03,0,.04-.04.02-.06Z"/>
      <path class="st9" d="M13.72,37.95c-.25-.26-1.56-1.51-3.56-.39-.03.02-.03.05-.01.08.24.26,1.58,1.54,3.51.63.02-.01.02-.04,0-.05l-2.61-.45s-.04-.04,0-.06c.05-.02,2.25.24,2.65.28.02,0,.04-.02.02-.04Z"/>
    </g>
  </g>
  <path class="st7" d="M52.79,27.84l-2.12-8.35h1.14l.99,4.23c.25,1.04.47,2.08.62,2.89h.02c.14-.83.4-1.82.68-2.9l1.12-4.21h1.13l1.02,4.24c.24.99.46,1.98.58,2.86h.02c.17-.92.41-1.85.67-2.89l1.1-4.21h1.1l-2.37,8.35h-1.13l-1.05-4.35c-.26-1.07-.43-1.88-.55-2.73h-.02c-.15.83-.33,1.65-.64,2.73l-1.19,4.35h-1.13Z"/>
  <path class="st7" d="M62.07,25.04c.02,1.47.97,2.08,2.06,2.08.78,0,1.25-.14,1.66-.31l.19.78c-.38.17-1.04.37-2,.37-1.85,0-2.95-1.21-2.95-3.02s1.07-3.24,2.81-3.24c1.96,0,2.48,1.72,2.48,2.83,0,.22-.02.4-.04.51h-4.21ZM65.27,24.26c.01-.69-.29-1.77-1.51-1.77-1.1,0-1.59,1.02-1.67,1.77h3.19Z"/>
  <path class="st7" d="M67.68,19.04h1.09v8.8h-1.09v-8.8Z"/>
  <path class="st7" d="M70.6,19.04h1.09v8.8h-1.09v-8.8Z"/>
  <path class="st7" d="M73.48,27.84c.02-.41.05-1.02.05-1.55v-7.25h1.08v3.77h.02c.38-.67,1.08-1.1,2.05-1.1,1.49,0,2.54,1.24,2.53,3.06,0,2.14-1.35,3.21-2.69,3.21-.87,0-1.56-.33-2.01-1.13h-.04l-.05.99h-.94ZM74.61,25.44c0,.14.02.27.05.4.21.76.84,1.28,1.64,1.28,1.14,0,1.82-.93,1.82-2.31,0-1.2-.62-2.23-1.79-2.23-.74,0-1.44.51-1.66,1.34-.02.12-.06.27-.06.45v1.08Z"/>
  <path class="st7" d="M81.19,25.04c.02,1.47.97,2.08,2.06,2.08.78,0,1.25-.14,1.66-.31l.19.78c-.38.17-1.04.37-2,.37-1.85,0-2.95-1.21-2.95-3.02s1.07-3.24,2.81-3.24c1.96,0,2.48,1.72,2.48,2.83,0,.22-.02.4-.04.51h-4.21ZM84.39,24.26c.01-.69-.29-1.77-1.51-1.77-1.1,0-1.59,1.02-1.67,1.77h3.19Z"/>
  <path class="st7" d="M88.01,20.16c.01.37-.26.67-.69.67-.38,0-.66-.3-.66-.67s.29-.68.68-.68.67.3.67.68ZM86.79,27.84v-6h1.09v6h-1.09Z"/>
  <path class="st7" d="M89.7,23.46c0-.62-.01-1.13-.05-1.62h.97l.06.99h.02c.3-.57.99-1.13,1.98-1.13.83,0,2.12.5,2.12,2.55v3.58h-1.09v-3.46c0-.97-.36-1.77-1.39-1.77-.72,0-1.28.51-1.46,1.12-.05.14-.07.32-.07.51v3.61h-1.09v-4.38Z"/>
  <path class="st7" d="M101.75,21.84c-.02.43-.05.92-.05,1.65v3.48c0,1.38-.27,2.22-.86,2.74-.58.55-1.43.72-2.18.72s-1.51-.17-2-.5l.27-.83c.4.25,1.02.47,1.76.47,1.12,0,1.93-.58,1.93-2.09v-.67h-.02c-.33.56-.98,1-1.91,1-1.49,0-2.55-1.27-2.55-2.93,0-2.03,1.33-3.19,2.7-3.19,1.04,0,1.61.55,1.87,1.04h.02l.05-.91h.95ZM100.62,24.21c0-.19-.01-.35-.06-.5-.2-.63-.73-1.15-1.52-1.15-1.04,0-1.79.88-1.79,2.27,0,1.18.6,2.16,1.77,2.16.67,0,1.28-.42,1.51-1.12.06-.19.09-.4.09-.58v-1.08Z"/>
  <path class="st7" d="M51.8,33.43c.66-.1,1.44-.17,2.29-.17,1.55,0,2.65.36,3.38,1.04.74.68,1.18,1.65,1.18,3s-.42,2.48-1.2,3.25c-.78.78-2.07,1.2-3.69,1.2-.77,0-1.41-.04-1.96-.1v-8.22ZM52.88,40.82c.27.05.67.06,1.09.06,2.31,0,3.56-1.29,3.56-3.55.01-1.97-1.1-3.22-3.38-3.22-.56,0-.98.05-1.26.11v6.59Z"/>
  <path class="st7" d="M60.68,38.88c.02,1.47.97,2.08,2.06,2.08.78,0,1.25-.14,1.66-.31l.19.78c-.38.17-1.04.37-2,.37-1.85,0-2.95-1.21-2.95-3.02s1.07-3.24,2.81-3.24c1.96,0,2.48,1.72,2.48,2.83,0,.22-.02.4-.04.51h-4.21ZM63.88,38.1c.01-.69-.29-1.77-1.51-1.77-1.1,0-1.59,1.02-1.67,1.77h3.19Z"/>
  <path class="st7" d="M66.13,40.56c.32.21.89.43,1.44.43.79,0,1.17-.4,1.17-.89,0-.52-.31-.81-1.12-1.1-1.08-.38-1.59-.98-1.59-1.7,0-.97.78-1.76,2.07-1.76.61,0,1.14.17,1.48.37l-.27.79c-.24-.15-.67-.35-1.23-.35-.64,0-1,.37-1,.82,0,.5.36.72,1.14,1.02,1.04.4,1.57.92,1.57,1.81,0,1.05-.82,1.8-2.24,1.8-.66,0-1.26-.16-1.69-.41l.27-.83Z"/>
  <path class="st7" d="M72.41,33.99c.01.37-.26.67-.69.67-.38,0-.66-.3-.66-.67s.29-.68.68-.68.67.3.67.68ZM71.19,41.68v-6h1.09v6h-1.09Z"/>
  <path class="st7" d="M79.26,35.68c-.02.43-.05.92-.05,1.65v3.48c0,1.38-.27,2.22-.86,2.74-.58.55-1.43.72-2.18.72s-1.51-.17-2-.5l.27-.83c.4.25,1.02.47,1.76.47,1.12,0,1.93-.58,1.93-2.09v-.67h-.02c-.33.56-.98,1-1.91,1-1.49,0-2.55-1.27-2.55-2.93,0-2.03,1.33-3.19,2.7-3.19,1.04,0,1.61.55,1.87,1.04h.03l.05-.91h.95ZM78.13,38.05c0-.19-.01-.35-.06-.5-.2-.63-.73-1.15-1.52-1.15-1.04,0-1.79.88-1.79,2.27,0,1.18.6,2.16,1.77,2.16.67,0,1.28-.42,1.51-1.12.06-.19.09-.4.09-.58v-1.08Z"/>
  <path class="st7" d="M80.95,37.3c0-.62-.01-1.13-.05-1.62h.97l.06.99h.02c.3-.57.99-1.13,1.98-1.13.83,0,2.12.5,2.12,2.55v3.58h-1.09v-3.46c0-.97-.36-1.77-1.39-1.77-.72,0-1.28.51-1.46,1.12-.05.14-.07.32-.07.51v3.61h-1.09v-4.38Z"/>
  <path class="st7" d="M87.68,40.56c.32.21.89.43,1.44.43.79,0,1.17-.4,1.17-.89,0-.52-.31-.81-1.12-1.1-1.08-.38-1.59-.98-1.59-1.7,0-.97.78-1.76,2.07-1.76.61,0,1.14.17,1.48.37l-.27.79c-.24-.15-.67-.35-1.23-.35-.64,0-1,.37-1,.82,0,.5.36.72,1.14,1.02,1.04.4,1.57.92,1.57,1.81,0,1.05-.82,1.8-2.24,1.8-.66,0-1.26-.16-1.69-.41l.27-.83Z"/>
</svg>