<?xml version="1.0" encoding="UTF-8"?>
<svg id="Layer_1" xmlns="http://www.w3.org/2000/svg" width="52" height="52" version="1.1" viewBox="0 0 52 52">
  <!-- Generator: Adobe Illustrator 29.6.1, SVG Export Plug-In . SVG Version: 2.1.1 Build 9)  -->
  <defs>
    <style>
      .st0 {
        fill: #6b9f50;
      }

      .st1 {
        fill: #7b8737;
      }

      .st2 {
        fill: #41813d;
      }

      .st3 {
        fill: #6dbd47;
      }

      .st4 {
        fill: #6d9944;
      }

      .st5 {
        fill: #5c8e3f;
      }

      .st6 {
        fill: #55b856;
      }

      .st7 {
        fill: #275026;
      }

      .st8 {
        fill: #306733;
      }

      .st9 {
        fill: #fff;
      }

      .st10 {
        fill: #879d3b;
      }

      .st11 {
        fill: #549041;
      }

      .st12 {
        fill: #b7ba34;
      }

      .st13 {
        fill: #c6c84b;
      }

      .st14 {
        fill: #4eb161;
      }

      .st15 {
        fill: #6bbd49;
      }

      .st16 {
        fill: #325f2e;
      }

      .st17 {
        fill: #97a439;
      }
    </style>
  </defs>
  <g>
    <polygon class="st3" points="7.71 36.7 7.71 44.91 12.28 44.27 7.71 36.7"/>
    <path class="st11" d="M7.71,44.91v3.56c0,.44.35.79.79.79h1.52l2.26-4.99s-4.57.64-4.57.64Z"/>
    <path class="st5" d="M11.89,15.21l-3.93,3.64c-.17.15-.26.37-.26.58v1.29l5.16.27-.98-5.78h.01Z"/>
    <polygon class="st2" points="7.71 20.73 7.71 29.2 12.87 21 7.71 20.73"/>
    <polygon class="st3" points="10.02 49.26 13.2 49.26 12.28 44.27 10.02 49.26"/>
    <polygon class="st4" points="14.54 32.51 7.71 32.78 7.71 36.7 12.28 44.27 14.54 32.51"/>
    <polygon class="st11" points="12.87 21 7.71 29.2 7.71 32.78 14.54 32.51 12.87 21"/>
    <polygon class="st2" points="12.87 21 14.54 32.51 19.88 24.91 12.87 21"/>
    <polygon class="st7" points="21.65 6.63 21.05 6.73 11.89 15.21 12.87 21 21.65 6.63"/>
    <polygon class="st2" points="21.36 6.45 21.05 6.73 21.65 6.63 21.36 6.45"/>
    <polygon class="st2" points="21.56 6.26 21.36 6.45 21.65 6.63 21.56 6.26"/>
    <polygon class="st3" points="12.28 44.27 13.2 49.26 21.44 49.26 22.61 48.42 12.28 44.27"/>
    <polygon class="st6" points="14.54 32.51 26.76 38.09 19.88 24.91 14.54 32.51"/>
    <polygon class="st11" points="12.28 44.27 26.76 38.09 14.54 32.51 12.28 44.27"/>
    <polygon class="st10" points="22.61 48.42 26.76 38.09 12.28 44.27 22.61 48.42"/>
    <polygon class="st4" points="27.95 16.73 12.87 21 19.88 24.91 27.95 16.73"/>
    <polygon class="st16" points="21.65 6.63 12.87 21 27.95 16.73 21.65 6.63"/>
    <polygon class="st17" points="21.44 49.26 23.06 49.26 22.61 48.42 21.44 49.26"/>
    <path class="st2" d="M26.41,3.14l-.21-.2c-.31-.27-.77-.27-1.08,0l-3.57,3.31.09.38,4.76-3.5h0Z"/>
    <polygon class="st10" points="19.88 24.91 26.76 38.09 31.51 26.34 19.88 24.91"/>
    <polygon class="st15" points="31.51 26.34 27.95 16.73 19.88 24.91 31.51 26.34"/>
    <polygon class="st10" points="22.61 48.42 26.24 49.26 31.33 49.26 26.76 38.09 22.61 48.42"/>
    <polygon class="st1" points="23.06 49.26 26.24 49.26 22.61 48.42 23.06 49.26"/>
    <polygon class="st7" points="27.95 16.73 35.05 10.85 31.86 8.01 21.65 6.63 27.95 16.73"/>
    <polygon class="st11" points="31.86 8.01 26.41 3.14 21.65 6.63 31.86 8.01"/>
    <polygon class="st0" points="26.76 38.09 39.46 39.99 31.51 26.34 26.76 38.09"/>
    <polygon class="st17" points="26.76 38.09 31.33 49.26 32.81 49.26 39.46 39.99 26.76 38.09"/>
    <polygon class="st17" points="31.51 26.34 39.46 39.99 39.94 24.21 31.51 26.34"/>
    <polygon class="st4" points="40.42 17.43 39.58 14.91 35.05 10.85 27.95 16.73 40.42 17.43"/>
    <polygon class="st16" points="40.42 17.43 27.95 16.73 31.51 26.34 40.42 17.43"/>
    <polygon class="st14" points="39.94 24.21 40.42 17.43 31.51 26.34 39.94 24.21"/>
    <polygon class="st12" points="39.46 39.99 32.81 49.26 42.5 49.26 39.46 39.99"/>
    <polygon class="st16" points="39.46 39.99 44.29 31.2 44.29 27.51 39.94 24.21 39.46 39.99"/>
    <path class="st5" d="M39.94,24.21l4.36-3.71v-1.02c0-.22-.09-.44-.26-.59l-1.78-1.6-1.83.15-.47,6.77h-.01Z"/>
    <polygon class="st7" points="44.29 27.51 44.29 20.5 39.94 24.21 44.29 27.51"/>
    <polygon class="st3" points="42.24 17.28 39.58 14.91 40.42 17.43 42.24 17.28"/>
    <polygon class="st8" points="44.29 40.18 44.29 31.2 39.46 39.99 44.29 40.18"/>
    <path class="st13" d="M42.5,49.26h1c.44,0,.79-.35.79-.79v-8.27l-4.83-.19,3.02,9.26h.01Z"/>
  </g>
  <g>
    <path class="st9" d="M23.96,49.24c.07-.56,1.93-15.53-8.92-19.45-.02,0-.01-.04,0-.02,1.05.24,5.8,1.44,8.17,4.64,0,.01.04,0,.02-.01-.26-.82-2.42-7.29-6.97-12.25-.01-.01,0-.04.02-.02,1.31,1.25,6.07,6.03,8.08,10.73,0,.01.02.01.02,0,.05-.72.57-8.08.73-14.81.04-1.32-.12-2.61-.24-3.84,0-.02.02-.02.04,0,.14.51.59,2.14.82,3.93.28,2.21.58,4.68.6,5.67,0,.05.06.06.08.02.39-.66,2.13-3.5,4.37-5.31.01-.01.04,0,.02.02-.54.63-2.65,3.19-3.89,7.26-.93,3.07-.51,6.7-.59,11.37,0,.01.02.02.02,0,.31-.6,3.11-5.85,9.7-11.24.01-.01.04,0,.02.02-.86,1.02-6.46,7.78-6.94,11.23,0,.01.01.02.02.01.37-.34,3.8-3.5,7.56-4.17.02,0,.02.02,0,.04-1.31.53-10.63,4.69-9.39,16.19,0,0,0,.01-.01.01h-3.37s-.01,0-.01-.01h.01Z"/>
    <path class="st9" d="M28.62,42.49c.45-.37,2.79-2.06,5.75.11.04.02.05.09,0,.12-.45.37-2.84,2.1-5.73.28-.04-.02-.02-.07.02-.07l4.27-.18s.07-.05,0-.09c-.07-.04-3.64-.08-4.29-.09-.04,0-.05-.05-.02-.07Z"/>
    <path class="st9" d="M29.12,40.15c.32-.47,2.04-2.75,5.46-1.55.05.01.07.07.04.12-.32.47-2.07,2.81-5.32,1.91-.04,0-.04-.06,0-.08l3.97-1.39s.06-.07-.04-.08c-.07-.01-3.45.97-4.08,1.15-.04,0-.06-.02-.05-.06h.01Z"/>
    <path class="st9" d="M32.75,36.36c.51-.27,3.12-1.45,5.54,1.25.04.04.02.09-.02.12-.51.26-3.17,1.49-5.6-.86-.02-.02,0-.07.04-.07l4.16.67s.08-.04.01-.09c-.06-.05-3.5-.8-4.12-.95-.04,0-.04-.06,0-.07Z"/>
    <path class="st9" d="M35.56,34.4c.5-.27,3.08-1.5,5.54,1.16.04.04.02.09-.02.12-.5.27-3.13,1.54-5.59-.77-.02-.02,0-.07.04-.07l4.16.6s.08-.04.01-.09c-.06-.05-3.51-.74-4.14-.87-.04,0-.05-.06,0-.07Z"/>
    <path class="st9" d="M37.76,32.52c.35-.4,2.26-2.32,5.29-.73.04.02.05.08.02.11-.35.4-2.29,2.36-5.21,1.1-.04-.01-.02-.07,0-.07l3.89-.79s.06-.06-.01-.08c-.07-.02-3.36.45-3.95.53-.04,0-.06-.04-.04-.06Z"/>
    <path class="st9" d="M37.91,30.34c.21-.5,1.45-2.89,4.82-2.32.05,0,.07.06.06.09-.21.48-1.47,2.95-4.63,2.64-.04,0-.05-.06-.01-.07l3.46-1.94s.05-.07-.05-.07c-.07,0-3.06,1.45-3.6,1.71-.04.01-.06-.01-.05-.05Z"/>
    <path class="st9" d="M34.15,28.77c.32-.44,2.06-2.49,5.22-1.17.05.02.06.07.04.11-.32.43-2.09,2.54-5.1,1.52-.04,0-.04-.06,0-.07l3.8-1.11s.06-.06-.02-.08c-.07-.01-3.31.73-3.89.86-.04,0-.06-.04-.04-.06h-.01Z"/>
    <path class="st9" d="M31.65,33.99c-.04-.47-.09-2.84,2.75-3.79.04-.01.08.01.08.06.04.47.09,2.88-2.48,3.96-.02.01-.06-.02-.05-.05l1.87-2.94s0-.07-.06-.05c-.06.04-1.75,2.4-2.07,2.82-.01.02-.06.01-.06-.01h.01Z"/>
    <path class="st9" d="M35.29,32.7c-.04-.3-.15-1.78,1.62-2.49.02,0,.05,0,.06.04.04.3.17,1.82-1.43,2.59-.02,0-.04,0-.02-.02l1.08-1.91s0-.05-.05-.02c-.04.02-1.03,1.57-1.21,1.86,0,.01-.04,0-.04,0v-.02Z"/>
    <path class="st9" d="M28.14,46.11c.21.08,1.23.53,1.06,1.95,0,.02-.02.04-.04.02-.21-.08-1.25-.54-1.19-1.87,0-.01.02-.02.02,0l.87,1.39s.04.01.04-.02-.67-1.23-.79-1.45c0-.01,0-.02.02-.02Z"/>
    <path class="st9" d="M28.73,44.14c.59-.02,3.53.04,4.57,3.63.01.05-.02.09-.07.11-.58.02-3.59-.02-4.8-3.3-.01-.04.04-.07.06-.05l3.56,2.48s.09,0,.06-.08c-.04-.07-2.88-2.3-3.4-2.72-.02-.02-.01-.07.02-.07Z"/>
    <path class="st9" d="M32.82,44.55c.51-.04,3.05-.04,4.02,3.05.01.05-.01.08-.06.09-.51.02-3.11.04-4.21-2.75-.01-.04.02-.06.05-.05l3.11,2.07s.08,0,.05-.07c-.04-.06-2.53-1.94-2.99-2.28-.02-.02-.01-.06.02-.06h.01Z"/>
    <path class="st9" d="M35.06,43.34c.43-.18,2.62-.91,4.35,1.47.02.04,0,.08-.02.09-.43.18-2.66.93-4.42-1.16-.02-.02,0-.06.04-.06l3.28.89s.07-.02.02-.07-2.74-.93-3.24-1.1c-.02,0-.02-.05,0-.06h-.01Z"/>
    <path class="st9" d="M33.98,41.02c.06-.31.45-1.81,2.41-1.9.02,0,.05.02.05.05-.06.3-.45,1.83-2.27,2.06-.02,0-.04-.02-.02-.04l1.69-1.52s.01-.05-.04-.04c-.04,0-1.52,1.19-1.8,1.41-.01.01-.04,0-.04-.02h.01Z"/>
    <path class="st9" d="M35.33,41.91c.2-.33,1.3-1.89,3.6-1.16.04,0,.05.05.02.07-.2.32-1.31,1.93-3.5,1.39-.02,0-.02-.05,0-.05l2.61-1.02s.04-.05-.02-.06c-.05,0-2.28.72-2.68.85-.02,0-.05-.01-.02-.04h-.01Z"/>
    <path class="st9" d="M38.11,39.09c.33-.35,2.12-2.02,4.81-.5.04.02.05.07.01.11-.33.35-2.15,2.06-4.74.82-.02-.01-.02-.06,0-.07l3.53-.59s.06-.05-.01-.08c-.06-.02-3.04.3-3.58.35-.04,0-.05-.04-.02-.06v.02Z"/>
    <path class="st9" d="M39.88,37.29c.18-.26,1.11-1.49,2.95-.82.02,0,.04.04.02.06-.18.26-1.12,1.51-2.88,1.02-.02,0-.02-.04,0-.05l2.15-.74s.04-.04-.01-.05c-.04,0-1.88.51-2.21.6-.02,0-.04-.01-.02-.04h0Z"/>
    <path class="st9" d="M40.5,33.94c.26-.09,1.57-.47,2.53.97.01.02,0,.05-.01.06-.26.09-1.6.48-2.58-.79,0-.01,0-.04.02-.04l1.91.6s.05,0,.01-.05c-.02-.02-1.6-.61-1.88-.73-.01,0-.01-.02,0-.04h-.01Z"/>
    <path class="st9" d="M39.79,40.82c.21-.22,1.35-1.29,3.05-.32.02.01.02.05,0,.06-.21.22-1.36,1.31-3.01.52-.02,0-.01-.04,0-.05l2.25-.38s.04-.04,0-.05c-.04-.01-1.94.19-2.28.22-.02,0-.04-.02-.01-.04v.02Z"/>
    <path class="st9" d="M37.27,45.77c.34-.02,2.02,0,2.64,2.04,0,.02,0,.06-.04.06-.33.01-2.06,0-2.77-1.84,0-.02.01-.05.04-.02l2.04,1.39s.06,0,.04-.05c-.02-.04-1.67-1.3-1.96-1.52-.01-.01,0-.04.01-.04v-.02Z"/>
    <path class="st9" d="M39.94,45.68c.35-.02,2.09-.04,2.77,2.08,0,.02,0,.06-.04.06-.34.02-2.13.04-2.89-1.88,0-.02.01-.05.04-.04l2.15,1.41s.06,0,.04-.05-1.75-1.32-2.06-1.56c-.01-.01,0-.04.01-.05v.02Z"/>
    <path class="st9" d="M40.59,44.52c.26-.12,1.61-.65,2.75.78.01.02,0,.05-.01.06-.26.12-1.63.66-2.79-.59-.01-.01,0-.04.02-.04l2.07.45s.05-.01,0-.05c-.02-.02-1.74-.5-2.04-.59-.01,0-.02-.02,0-.04h0Z"/>
    <path class="st9" d="M38.53,42.52c.39-.3,2.39-1.65,4.81.26.04.02.04.08,0,.11-.38.3-2.42,1.69-4.8.07-.02-.02-.01-.06.02-.06l3.57-.04s.07-.04,0-.08c-.06-.04-3.04-.18-3.58-.2-.04,0-.05-.04-.01-.06h-.01Z"/>
    <path class="st9" d="M40.44,27.19c.13-.19.83-1.06,2.16-.56.02,0,.02.02.01.05-.13.18-.84,1.09-2.12.7-.01,0-.01-.02,0-.04l1.58-.51s.02-.02,0-.04c-.04,0-1.37.34-1.62.4-.01,0-.02-.01-.01-.02h-.01Z"/>
    <path class="st9" d="M36.63,25.84c.38-.48,2.39-2.75,5.9-1.17.05.02.06.08.04.12-.37.47-2.42,2.8-5.79,1.57-.04-.01-.04-.07,0-.08l4.31-1.15s.07-.07-.02-.09c-.08-.02-3.73.73-4.4.86-.04,0-.06-.04-.04-.07h0Z"/>
    <path class="st9" d="M40.96,23.48c.08-.21.58-1.23,2-1.02.02,0,.04.02.02.04-.08.21-.58,1.25-1.91,1.15-.01,0-.02-.02,0-.04l1.43-.84s.01-.04-.02-.04-1.26.64-1.49.76c-.01,0-.02,0-.02-.02h0Z"/>
    <path class="st9" d="M37.49,23.83c.07-.66.6-3.91,4.75-4.49.06,0,.11.04.11.09-.07.65-.6,3.97-4.41,4.79-.05,0-.07-.05-.05-.07l3.31-3.54s.02-.11-.08-.07c-.08.02-3.01,2.82-3.54,3.33-.04.02-.08,0-.07-.04h-.01Z"/>
    <path class="st9" d="M26.86,34.11c-.15-.39-.83-2.39,1.34-3.95.02-.02.07,0,.08.02.15.39.84,2.42-1.06,4.01-.02.02-.06,0-.05-.04l.8-2.98s-.02-.06-.07-.02c-.04.04-.85,2.49-1,2.93,0,.02-.05.02-.05,0v.02Z"/>
    <path class="st9" d="M26.74,29.72c-.08-.39-.38-2.34,1.87-3.44.04-.01.07,0,.07.04.08.38.4,2.38-1.62,3.54-.02.01-.05,0-.04-.04l1.22-2.62s0-.06-.06-.02c-.05.04-1.18,2.16-1.39,2.55,0,.02-.05.01-.05,0h0Z"/>
    <path class="st9" d="M29.49,30.88c-.25-.46-1.37-2.82,1.06-5.07.04-.04.08-.02.11.01.25.45,1.41,2.86-.71,5.12-.02.02-.07,0-.06-.02l.56-3.8s-.04-.07-.08-.01c-.05.06-.69,3.2-.8,3.77,0,.04-.05.04-.06,0h-.01Z"/>
    <path class="st9" d="M32.19,28.2c-.22-.51-1.17-3.1,1.6-5.22.04-.02.09-.01.12.02.22.5,1.21,3.14-1.23,5.31-.02.02-.07,0-.06-.04l.95-3.95s-.02-.08-.08-.02c-.05.06-1.03,3.3-1.21,3.89,0,.04-.06.04-.07,0h-.01Z"/>
    <path class="st9" d="M35.06,25.06c-.25-.54-1.32-3.33,1.65-5.7.04-.04.11-.02.12.02.25.54,1.36,3.39-1.25,5.77-.04.02-.08,0-.07-.04l.96-4.29s-.04-.09-.09-.02c-.06.06-1.06,3.59-1.24,4.24,0,.04-.06.04-.07,0h0Z"/>
    <path class="st9" d="M38.12,20.07c-.08-.34-.35-2.09,1.65-3.1.02-.01.06,0,.07.04.07.34.38,2.13-1.43,3.19-.02.01-.05,0-.04-.04l1.08-2.36s0-.06-.05-.02c-.04.02-1.05,1.95-1.24,2.3,0,.02-.04.01-.05,0h0Z"/>
    <path class="st9" d="M27.91,25.08c.24-.46,1.58-2.71,4.81-1.93.05,0,.07.06.05.09-.24.46-1.61,2.75-4.64,2.25-.04,0-.05-.06,0-.07l3.46-1.64s.05-.07-.04-.07c-.07,0-3.04,1.21-3.58,1.42-.04.01-.06-.02-.05-.05h-.01Z"/>
    <path class="st9" d="M28.94,22.31c.21-.22,1.31-1.26,3-.31.02.01.02.05,0,.06-.21.22-1.34,1.29-2.95.52-.02,0-.01-.04,0-.04l2.21-.37s.04-.04,0-.05-1.9.19-2.23.22c-.02,0-.04-.02-.01-.04h-.01Z"/>
    <path class="st9" d="M30.12,20.24c.37-.31,2.27-1.75,4.74,0,.04.02.04.07,0,.11-.37.31-2.3,1.78-4.71.32-.02-.01-.01-.06.01-.06l3.51-.21s.06-.05,0-.08c-.06-.02-3-.02-3.53-.02-.04,0-.05-.04-.02-.06h.01Z"/>
    <path class="st9" d="M31.8,18.16c.37-.59,2.4-3.41,6.61-2.03.06.02.08.08.05.14-.37.58-2.43,3.49-6.42,2.48-.05,0-.05-.08,0-.09l4.79-1.81s.07-.08-.04-.11c-.09-.01-4.18,1.28-4.93,1.5-.05.01-.07-.04-.05-.07h-.01Z"/>
    <path class="st9" d="M31.05,17.06c-.15-.56-.77-3.4,2.45-5.22.05-.02.09,0,.12.05.15.56.79,3.45-2.07,5.35-.04.02-.07-.01-.06-.05l1.56-3.97s-.01-.09-.08-.04c-.06.05-1.56,3.3-1.83,3.89-.01.04-.06.02-.07,0h-.01Z"/>
    <path class="st9" d="M33.96,15.38c.05-.28.38-1.67,2.17-1.8.02,0,.05.02.04.05-.05.28-.38,1.7-2.04,1.94-.02,0-.04-.02-.01-.04l1.52-1.43s.01-.05-.04-.04c-.04,0-1.38,1.13-1.63,1.34-.01,0-.04,0-.04-.02h.02Z"/>
    <path class="st9" d="M26.83,21.06c-.25-.48-1.36-2.95,1.22-5.23.04-.04.09-.02.12.02.25.47,1.39,3-.84,5.28-.02.02-.07,0-.07-.04l.65-3.92s-.04-.08-.08-.01c-.05.06-.78,3.31-.91,3.9,0,.04-.05.04-.07,0h-.01Z"/>
    <path class="st9" d="M29.53,18.27c-.28-.34-1.56-2.12.12-4.35.02-.04.07-.04.09,0,.27.34,1.6,2.15.19,4.32-.01.02-.06.01-.06-.01l-.12-3.23s-.04-.06-.07,0c-.02.05-.08,2.74-.09,3.24,0,.02-.04.04-.05.01h-.01Z"/>
    <path class="st9" d="M30.87,12.71c-.07-.27-.33-1.67,1.25-2.51.02,0,.05,0,.06.02.07.27.34,1.69-1.08,2.58-.01,0-.04,0-.04-.02l.82-1.91s0-.05-.05-.02c-.04.02-.8,1.58-.95,1.87,0,.01-.04.01-.04,0h.01Z"/>
    <path class="st9" d="M26.08,14.87c-.08-.77-.26-4.62,4.27-6.48.06-.02.13.01.14.08.08.76.28,4.7-3.82,6.72-.05.02-.09-.02-.07-.07l2.87-4.99s0-.12-.11-.06c-.09.06-2.72,4.09-3.19,4.82-.02.04-.08.02-.09-.02h0Z"/>
    <path class="st9" d="M27.37,9.45c-.05-.3-.22-1.77,1.5-2.54.02,0,.05,0,.06.02.05.3.24,1.81-1.32,2.62-.01,0-.04,0-.02-.02l.99-1.95s0-.05-.05-.02c-.04.02-.96,1.61-1.12,1.89,0,.01-.04,0-.04,0Z"/>
    <path class="st9" d="M23.31,10.04c-.28-.08-1.68-.56-1.62-2.42,0-.02.02-.05.05-.04.28.08,1.7.57,1.77,2.3,0,.02-.02.04-.04.01l-1.31-1.71s-.05-.01-.04.02c0,.04,1.02,1.54,1.21,1.81,0,.01,0,.04-.02.04h0Z"/>
    <path class="st9" d="M24.97,12.35c-.44-.61-2.46-3.84.4-7.74.04-.05.12-.06.15,0,.44.61,2.52,3.9.09,7.73-.02.05-.09.02-.09-.02l-.04-5.74s-.06-.11-.12,0c-.05.09-.27,4.89-.31,5.77,0,.05-.06.07-.08.02h-.01Z"/>
    <path class="st9" d="M24.23,14.81c-.61-.2-3.64-1.37-3.97-5.47,0-.06.05-.09.09-.08.6.2,3.7,1.38,4.27,5.2,0,.05-.05.06-.07.02l-3.15-3.89s-.09-.04-.07.06c.02.08,2.51,3.46,2.94,4.08.02.04,0,.07-.04.06v.02Z"/>
    <path class="st9" d="M20.67,13.3c-.33-.06-1.94-.48-2.04-2.6,0-.02.02-.05.05-.05.32.06,1.97.48,2.21,2.45,0,.02-.02.04-.04.02l-1.63-1.83s-.05-.01-.04.04c0,.05,1.29,1.65,1.51,1.94.01.01,0,.04-.02.04Z"/>
    <path class="st9" d="M24,18.6c-.63-.09-3.73-.79-4.08-4.81,0-.06.05-.11.09-.09.63.09,3.79.79,4.38,4.5,0,.05-.05.07-.07.04l-3.24-3.37s-.09-.02-.07.07c.02.08,2.56,3.05,3.02,3.59.02.04,0,.07-.04.07h-.01Z"/>
    <path class="st9" d="M18.97,16.74c-.43-.26-2.48-1.69-1.52-4.71.01-.04.06-.06.09-.04.43.26,2.53,1.71,1.84,4.58,0,.04-.06.04-.07,0l-1.35-3.41s-.06-.05-.07.02c0,.07.96,2.99,1.12,3.52,0,.04-.02.06-.05.04Z"/>
    <path class="st9" d="M23.7,23.54c-.58-.21-3.4-1.44-2.99-5.34,0-.05.06-.08.11-.07.58.21,3.47,1.45,3.33,5.1,0,.05-.06.06-.08.02l-2.46-3.82s-.08-.05-.08.05c0,.08,1.88,3.38,2.21,3.98.02.04-.01.07-.05.06h.01Z"/>
    <path class="st9" d="M23.01,29.01c-.47-.35-2.71-2.3-1.21-5.75.02-.05.08-.06.12-.04.46.35,2.77,2.34,1.58,5.64-.01.04-.07.04-.08,0l-1.16-4.19s-.07-.06-.09.02.74,3.64.89,4.29c0,.04-.04.06-.06.04h.01Z"/>
    <path class="st9" d="M19.95,25.4c-.2-.31-1.12-1.91.58-3.52.02-.02.06-.01.08,0,.2.31,1.15,1.94-.32,3.54-.01.02-.05,0-.05-.02l.25-2.64s-.02-.05-.06,0c-.04.04-.38,2.22-.44,2.62,0,.02-.04.02-.05,0h0Z"/>
    <path class="st9" d="M18.21,23.09c-.32-.48-1.74-2.97.74-5.64.04-.04.09-.04.12,0,.31.47,1.78,3.01-.34,5.66-.02.04-.07,0-.07-.02l.28-4.21s-.05-.08-.09,0c-.05.06-.48,3.57-.57,4.21,0,.04-.05.05-.07.01h0Z"/>
    <path class="st9" d="M16.55,20.66c-.48-.41-2.82-2.65-1.48-6.51.02-.05.08-.07.12-.04.48.41,2.87,2.68,1.87,6.38,0,.05-.07.04-.08,0l-1.36-4.76s-.07-.07-.09.02c-.01.08.92,4.11,1.09,4.84,0,.04-.04.07-.06.05h0Z"/>
    <path class="st9" d="M14.7,20.99c-.52-.07-3.06-.61-3.38-3.91,0-.05.04-.08.08-.07.51.08,3.12.61,3.63,3.65,0,.04-.04.06-.06.04l-2.68-2.74s-.08-.02-.06.06c.01.07,2.13,2.48,2.51,2.92.02.02,0,.06-.04.06Z"/>
    <path class="st9" d="M16.57,14.94c-.17-.09-.97-.65-.61-1.83,0-.01.02-.02.04-.01.17.09.99.65.74,1.77,0,.01-.02.01-.02,0l-.54-1.32s-.02-.02-.02,0,.39,1.16.46,1.37c0,0,0,.02-.02.01h-.01Z"/>
    <path class="st9" d="M14.14,17.56c-.22-.08-1.31-.58-1.12-2.08,0-.02.02-.04.05-.02.22.08,1.34.59,1.25,2,0,.01-.02.02-.04,0l-.92-1.49s-.04-.01-.04.02.7,1.32.83,1.56c0,.01,0,.02-.02.02h.01Z"/>
    <path class="st9" d="M11.92,20.44c-.3.11-1.77.52-2.85-1.11-.01-.02,0-.05.02-.06.28-.11,1.8-.54,2.91.91.01.01,0,.04-.02.04l-2.16-.69s-.05,0-.01.05c.02.04,1.8.71,2.12.84.02,0,.01.04,0,.04h0Z"/>
    <path class="st9" d="M15.16,22.88c-.53.34-3.27,1.87-6.17-.89-.04-.04-.04-.11,0-.13.53-.33,3.33-1.9,6.19.46.04.02,0,.08-.04.08l-4.61-.37s-.09.05,0,.11c.07.05,3.9.58,4.58.67.04,0,.05.06.01.08l.02-.02Z"/>
    <path class="st9" d="M13.12,25.8c-.45.17-2.75.83-4.43-1.71-.02-.04,0-.08.04-.09.45-.15,2.8-.85,4.53,1.41.02.02,0,.06-.04.06l-3.36-1.06s-.07.02-.02.07c.05.05,2.8,1.1,3.3,1.29.02,0,.02.05,0,.06h-.01Z"/>
    <path class="st9" d="M17.46,24.95c-.38.24-2.36,1.26-4.36-.76-.02-.02-.02-.07,0-.09.38-.22,2.4-1.29,4.38.45.02.02,0,.06-.02.06l-3.26-.35s-.06.04,0,.07c.05.04,2.75.48,3.25.57.02,0,.04.04,0,.06h.01Z"/>
    <path class="st9" d="M18.9,26.68c-.24.14-1.44.8-2.68-.41-.01-.01-.01-.05,0-.06.24-.14,1.47-.82,2.71.22.01.01,0,.04-.01.04l-2.01-.19s-.04.02,0,.05,1.7.27,2,.32c.01,0,.02.02,0,.04Z"/>
    <path class="st9" d="M16.39,29.61c-.44-.09-2.59-.71-2.66-3.54,0-.04.04-.07.07-.06.44.09,2.64.71,2.88,3.33,0,.04-.04.05-.06.02l-2.13-2.49s-.07-.02-.06.05c0,.06,1.67,2.25,1.97,2.65.01.02,0,.05-.04.05h.01Z"/>
    <path class="st9" d="M20.77,31.13c-.5-.06-2.94-.51-3.33-3.64,0-.05.04-.08.07-.07.48.06,2.99.51,3.56,3.39,0,.04-.04.06-.06.04l-2.64-2.54s-.08-.01-.06.06c.02.06,2.09,2.3,2.47,2.72.02.02,0,.06-.02.06h.01Z"/>
    <path class="st9" d="M13.75,29.16c-.51.17-3.08.86-4.88-2.02-.02-.04,0-.09.04-.11.51-.17,3.13-.89,4.99,1.67.02.02,0,.07-.05.06l-3.71-1.26s-.08.02-.02.08c.05.06,3.08,1.29,3.63,1.51.04.01.02.06,0,.07h.01Z"/>
    <path class="st9" d="M10.91,29.82c-.18.13-1.11.74-2.2-.15-.01-.01-.01-.04,0-.05.18-.13,1.12-.76,2.2,0,.01,0,0,.02,0,.02h-1.63s-.04,0,0,.02c.02.01,1.39.09,1.64.12.01,0,.02.02,0,.02h-.01Z"/>
    <path class="st9" d="M15.9,31.39c-.48.4-3,2.27-6.23-.08-.05-.04-.05-.09,0-.13.47-.4,3.05-2.32,6.19-.35.04.02.02.08-.02.08l-4.61.22s-.08.06,0,.11c.07.04,3.93.07,4.63.07.04,0,.06.05.02.07h.01Z"/>
    <path class="st9" d="M19.83,34.12c-.51.39-3.18,2.14-6.32-.44-.05-.04-.05-.11,0-.13.51-.38,3.24-2.19,6.31,0,.04.02.02.08-.02.08l-4.7-.02s-.08.05,0,.11c.07.05,3.99.28,4.71.34.04,0,.06.05.02.08v-.02Z"/>
    <path class="st9" d="M12.77,34.14c-.37.15-2.23.83-3.76-1.18-.02-.02,0-.07.02-.08.37-.15,2.27-.85,3.82.92.01.02,0,.05-.02.05l-2.84-.7s-.06.02-.01.06c.04.04,2.38.76,2.8.89.02,0,.02.04,0,.05h-.01Z"/>
    <path class="st9" d="M23.16,42.67c-.41-.37-2.6-2.06-5.51-.08-.04.02-.05.08,0,.12.41.37,2.65,2.1,5.47.46.04-.02.02-.07-.01-.07l-4.08-.32s-.07-.05,0-.08,3.49.04,4.1.05c.04,0,.05-.05.02-.06h0Z"/>
    <path class="st9" d="M23.02,40.32c-.32-.47-2.04-2.75-5.46-1.55-.05.01-.07.07-.04.12.32.47,2.07,2.81,5.32,1.91.04,0,.04-.06,0-.08l-3.97-1.39s-.06-.07.04-.08c.07-.01,3.45.97,4.08,1.15.04,0,.06-.02.05-.06h-.01Z"/>
    <path class="st9" d="M21.92,36.9c-.41-.45-2.64-2.55-6.19-.98-.05.02-.06.08-.02.12.41.44,2.67,2.6,6.1,1.36.04-.01.04-.07,0-.08l-4.54-.99s-.07-.06.02-.09c.08-.02,3.91.6,4.62.72.04,0,.06-.04.04-.06h-.02Z"/>
    <path class="st9" d="M23.25,46.22c-.2.09-1.21.6-.96,2,0,.02.02.04.05.02.2-.09,1.23-.6,1.09-1.93,0-.01-.02-.02-.04,0l-.8,1.44s-.04.01-.04-.01c0-.04.6-1.26.71-1.49,0-.01,0-.02-.02-.02h.01Z"/>
    <path class="st9" d="M22.69,44.52c-.57-.02-3.38.02-4.38,3.45-.01.05.02.09.07.09.56.02,3.44-.01,4.6-3.13.01-.04-.02-.07-.06-.05l-3.4,2.35s-.09,0-.05-.07c.04-.07,2.77-2.2,3.26-2.59.02-.02.01-.07-.02-.07h-.01Z"/>
    <path class="st9" d="M18.85,44.68c-.51-.04-3.05-.04-4.02,3.05-.01.05.01.08.06.09.51.02,3.11.04,4.21-2.75.01-.04-.02-.06-.05-.05l-3.11,2.07s-.08,0-.05-.07c.04-.06,2.53-1.94,2.99-2.28.02-.02.01-.06-.02-.06h-.01Z"/>
    <path class="st9" d="M16.8,43.39c-.43-.18-2.62-.91-4.35,1.47-.02.04,0,.08.02.09.43.18,2.66.93,4.42-1.16.02-.02,0-.06-.04-.06l-3.28.89s-.07-.02-.02-.07,2.74-.93,3.24-1.1c.02,0,.02-.05,0-.06h.01Z"/>
    <path class="st9" d="M18.04,41.08c-.06-.28-.41-1.64-2.2-1.74-.02,0-.05.02-.04.05.06.27.41,1.68,2.07,1.88.02,0,.04-.02.01-.04l-1.55-1.38s-.01-.05.04-.04c.04,0,1.39,1.1,1.64,1.29.01,0,.04,0,.04-.02h-.01Z"/>
    <path class="st9" d="M16.9,41.88c-.21-.35-1.41-2.06-3.93-1.26-.04,0-.05.05-.04.08.21.35,1.43,2.1,3.82,1.52.02,0,.04-.05,0-.06l-2.85-1.11s-.04-.05.02-.06c.06,0,2.49.79,2.93.93.02,0,.05-.02.04-.05h.01Z"/>
    <path class="st9" d="M13.6,39.03c-.31-.38-1.95-2.19-4.75-.87-.04.01-.05.07-.02.09.31.38,1.97,2.22,4.67,1.21.04,0,.02-.06,0-.07l-3.47-.87s-.06-.06.02-.07c.06-.02,3,.54,3.54.64.04,0,.05-.02.04-.05h-.02Z"/>
    <path class="st9" d="M14.03,35.69c-.41-.3-2.59-1.64-5.05.48-.04.02-.04.08,0,.11.41.3,2.62,1.68,5.05-.13.02-.02.01-.07-.02-.07l-3.76.12s-.07-.04,0-.08c.06-.04,3.19-.32,3.76-.37.04,0,.05-.05.01-.06h.01Z"/>
    <path class="st9" d="M11.87,40.72c-.21-.22-1.35-1.29-3.05-.32-.02.01-.02.05,0,.06.21.22,1.36,1.31,3.01.52.02,0,.01-.04,0-.05l-2.25-.38s-.04-.04,0-.05c.04-.01,1.94.19,2.28.22.02,0,.04-.02.01-.04v.02Z"/>
    <path class="st9" d="M14.5,45.7c-.34-.02-2.02,0-2.64,2.04,0,.02,0,.06.04.06.33.01,2.06,0,2.77-1.84,0-.02-.01-.05-.04-.02l-2.04,1.39s-.06,0-.04-.05c.02-.04,1.67-1.3,1.96-1.52.01-.01,0-.04-.01-.04v-.02Z"/>
    <path class="st9" d="M11.81,45.65c-.35-.02-2.09-.04-2.77,2.08,0,.02,0,.06.04.06.34.02,2.13.04,2.89-1.88,0-.02-.01-.05-.04-.04l-2.15,1.41s-.06,0-.04-.05,1.75-1.32,2.06-1.56c.01-.01,0-.04-.01-.05v.02Z"/>
    <path class="st9" d="M11.48,44.35c-.26-.12-1.61-.65-2.75.78-.01.02,0,.05.01.06.26.12,1.63.66,2.79-.59.01-.01,0-.04-.02-.04l-2.07.45s-.05-.01,0-.05c.02-.02,1.74-.5,2.04-.59.01,0,.02-.02,0-.04h0Z"/>
    <path class="st9" d="M13.63,42.52c-.39-.3-2.39-1.65-4.81.26-.04.02-.04.08,0,.11.38.3,2.42,1.69,4.8.07.02-.02.01-.06-.02-.06l-3.57-.04s-.07-.04,0-.08c.06-.04,3.04-.18,3.58-.2.04,0,.05-.04.01-.06h.01Z"/>
    <path class="st9" d="M16.91,37.89c-.25-.26-1.55-1.5-3.53-.39-.02.01-.04.05-.01.07.25.26,1.57,1.52,3.49.63.02,0,.02-.05,0-.05l-2.6-.45s-.05-.04,0-.06c.05-.01,2.23.24,2.64.28.02,0,.04-.02.02-.04Z"/>
  </g>
</svg>