<?xml version="1.0" encoding="UTF-8"?>
<svg id="Icons" xmlns="http://www.w3.org/2000/svg" viewBox="0 0 64 64">
  <defs>
    <style>
      .cls-1 {
        fill: none;
      }

      .cls-2 {
        fill: #2d2e2d;
      }
    </style>
  </defs>
  <rect class="cls-1" width="64" height="64"/>
  <g>
    <path class="cls-2" d="m24.26,12.63c0-2,.81-3.82,2.13-5.13s3.13-2.13,5.13-2.13,3.82.81,5.13,2.13,2.13,3.13,2.13,5.13c0,1.65-.55,3.18-1.49,4.4-.95,1.25-2.3,2.18-3.86,2.6-.35.09-.63.29-.83.55s-.31.59-.31.95v2.21h-1.53v-2.21c0-.7.23-1.35.63-1.87.4-.52.97-.91,1.64-1.1,1.23-.33,2.3-1.07,3.05-2.05.73-.96,1.17-2.17,1.17-3.47,0-1.58-.64-3.01-1.68-4.05-1.04-1.04-2.47-1.68-4.05-1.68s-3.01.64-4.05,1.68-1.68,2.47-1.68,4.05h-1.53,0Z"/>
    <polygon class="cls-2" points="32.29 24.72 32.29 26.52 30.76 26.52 30.76 24.72 32.29 24.72"/>
    <path class="cls-2" d="m40.39,17.15v-.1l.03-.1c.35-1.31,1.2-2.36,2.3-2.99,1.06-.61,2.35-.83,3.63-.52l.11.03c1.31.35,2.36,1.2,2.99,2.29h0c.63,1.09.84,2.42.49,3.73-.29,1.08-.92,1.98-1.75,2.62-.84.65-1.89,1.02-2.99,1.03-.17,0-.32.05-.44.15-.12.09-.21.23-.25.39l-.37,1.37-1.47-.39.37-1.37c.13-.49.42-.91.8-1.2.38-.29.85-.46,1.36-.46h0c.75,0,1.48-.26,2.06-.71.57-.44,1-1.06,1.2-1.81.24-.91.1-1.83-.34-2.58-.43-.75-1.15-1.33-2.04-1.58h-.02c-.91-.25-1.83-.1-2.58.33-.75.43-1.34,1.16-1.58,2.06l-.74-.2h-.77Z"/>
    <polygon class="cls-2" points="43.91 25.91 43.61 27.02 42.14 26.62 42.43 25.51 43.91 25.91"/>
    <path class="cls-2" d="m14.57,21.53c-.68-1.18-.82-2.52-.49-3.73.33-1.22,1.12-2.31,2.29-2.99,1.18-.68,2.52-.82,3.73-.49,1.22.33,2.31,1.12,2.99,2.29.56.97.75,2.05.62,3.09-.14,1.06-.61,2.06-1.39,2.84-.12.12-.19.26-.21.41-.02.15.01.31.09.46l.71,1.23-1.32.76-.71-1.23c-.25-.44-.35-.93-.29-1.41.06-.48.28-.93.64-1.29.53-.54.86-1.23.96-1.96.09-.71-.04-1.46-.43-2.13-.47-.81-1.22-1.36-2.06-1.58-.84-.23-1.77-.13-2.58.34-.81.47-1.36,1.22-1.58,2.06-.23.84-.13,1.77.34,2.58l-1.32.76h0Z"/>
    <polygon class="cls-2" points="23.36 25.4 23.93 26.4 22.61 27.15 22.04 26.16 23.36 25.4"/>
    <path class="cls-2" d="m20.04,58.5c.24-2.88,1.58-5.47,3.6-7.33,2-1.84,4.67-2.97,7.59-2.97h1.55c2.92,0,5.59,1.13,7.59,2.97,2.02,1.86,3.36,4.44,3.6,7.33l-1.52.13c-.21-2.49-1.37-4.72-3.11-6.33-1.73-1.59-4.03-2.57-6.56-2.57h-1.55c-2.52,0-4.83.98-6.56,2.57-1.74,1.61-2.9,3.84-3.11,6.33l-1.52-.13h0Z"/>
    <path class="cls-2" d="m32,33.29c1.74,0,3.32.71,4.47,1.85,1.14,1.14,1.85,2.72,1.85,4.47s-.71,3.32-1.85,4.47-2.72,1.85-4.47,1.85-3.32-.71-4.47-1.85-1.85-2.72-1.85-4.47.71-3.32,1.85-4.47,2.72-1.85,4.47-1.85Zm3.39,2.93c-.87-.87-2.06-1.4-3.39-1.4s-2.52.54-3.39,1.4c-.87.87-1.4,2.06-1.4,3.39s.54,2.52,1.4,3.39c.87.87,2.06,1.4,3.39,1.4s2.52-.54,3.39-1.4c.87-.87,1.4-2.06,1.4-3.39s-.54-2.52-1.4-3.39Z"/>
    <path class="cls-2" d="m36.44,49.61c.88-2.01,2.34-3.71,4.16-4.9,1.76-1.15,3.87-1.83,6.12-1.83h1.55c3.09,0,5.9,1.26,7.93,3.3,2.03,2.03,3.3,4.84,3.3,7.93v4.46h-1.53v-4.46c0-2.67-1.09-5.09-2.85-6.85s-4.18-2.85-6.85-2.85h-1.55c-1.95,0-3.76.58-5.29,1.58-1.57,1.03-2.83,2.5-3.6,4.24l-1.4-.61h0Z"/>
    <path class="cls-2" d="m47.5,27.97c1.74,0,3.32.71,4.47,1.85,1.14,1.14,1.85,2.72,1.85,4.47s-.71,3.32-1.85,4.47h0c-1.14,1.14-2.72,1.85-4.47,1.85s-3.32-.71-4.47-1.85c-1.14-1.15-1.85-2.73-1.85-4.47s.71-3.32,1.85-4.47c1.14-1.14,2.72-1.85,4.47-1.85h0Zm3.39,2.93c-.87-.87-2.06-1.4-3.39-1.4s-2.52.54-3.39,1.4c-.87.87-1.4,2.06-1.4,3.39s.54,2.52,1.4,3.39h0c.87.87,2.06,1.4,3.39,1.4s2.52-.54,3.39-1.4c.87-.87,1.4-2.07,1.4-3.39s-.54-2.52-1.4-3.39h0Z"/>
    <polygon class="cls-2" points="53.01 58.56 53.01 52.78 54.54 52.78 54.54 58.56 53.01 58.56"/>
    <path class="cls-2" d="m26.16,50.22c-.76-1.74-2.03-3.21-3.6-4.24-1.52-1-3.34-1.58-5.29-1.58h-1.55c-2.67,0-5.09,1.09-6.85,2.85-1.76,1.76-2.85,4.18-2.85,6.85v4.46h-1.53v-4.46c0-3.09,1.26-5.9,3.3-7.93s4.84-3.3,7.93-3.3h1.55c2.25,0,4.36.67,6.12,1.83,1.82,1.19,3.28,2.9,4.16,4.9l-1.4.61h0Z"/>
    <path class="cls-2" d="m16.5,29.5c-1.32,0-2.52.54-3.39,1.4-.87.87-1.4,2.06-1.4,3.39s.54,2.52,1.4,3.39c.87.87,2.07,1.4,3.39,1.4s2.52-.54,3.39-1.4h0c.87-.86,1.4-2.06,1.4-3.39s-.54-2.52-1.4-3.39c-.87-.87-2.06-1.4-3.39-1.4h0Zm-4.47.32c1.14-1.14,2.72-1.85,4.47-1.85s3.32.71,4.47,1.85c1.14,1.14,1.85,2.72,1.85,4.47s-.71,3.32-1.85,4.47c-1.14,1.14-2.72,1.85-4.47,1.85s-3.32-.71-4.47-1.85h0c-1.14-1.15-1.85-2.73-1.85-4.47s.71-3.32,1.85-4.47h0Z"/>
    <polygon class="cls-2" points="9.46 58.56 9.46 52.78 10.99 52.78 10.99 58.56 9.46 58.56"/>
  </g>
</svg>