<?xml version="1.0" encoding="UTF-8"?>
<svg id="Icons" xmlns="http://www.w3.org/2000/svg" viewBox="0 0 64 64">
  <defs>
    <style>
      .cls-1 {
        fill: none;
      }

      .cls-2 {
        fill: #2d2e2d;
      }
    </style>
  </defs>
  <rect class="cls-1" width="64" height="64"/>
  <g>
    <path class="cls-2" d="m39.56,51.78c1.86.02,3.51-.66,4.75-1.77,1.28-1.16,2.12-2.78,2.3-4.59l.08-.88.85.21c.52.13,1.05.19,1.59.18.52,0,1.05-.08,1.59-.22,1.72-.46,3.09-1.57,3.91-3,.82-1.43,1.1-3.17.64-4.89-.08-.29-.17-.56-.28-.83-.12-.28-.24-.54-.39-.78-.16-.27-.26-.55-.3-.84-.04-.29-.02-.59.06-.89.08-.3.21-.57.39-.8.18-.23.41-.43.68-.58.97-.55,1.72-1.41,2.14-2.42.41-.98.51-2.11.22-3.22-.28-1.03-.85-1.9-1.61-2.53-.78-.65-1.75-1.06-2.79-1.15-.56-.05-1.05-.29-1.42-.66-.37-.37-.61-.87-.65-1.43h0c-.02-.22-.04-.43-.08-.65-.04-.21-.08-.42-.14-.64h0c-.5-1.86-1.7-3.34-3.24-4.23-1.54-.89-3.42-1.19-5.28-.69h-.03c-.44.13-.86.29-1.25.48-.41.2-.8.44-1.16.72l-.9.69-.3-1.1c-.56-2.08-1.44-3.9-2.79-5.09-1.13-1-2.62-1.57-4.55-1.51-1.74.06-3.34.76-4.54,1.9-1.19,1.12-1.99,2.68-2.16,4.46l-.08.88-.85-.21c-.52-.13-1.05-.19-1.59-.18-.52,0-1.05.08-1.59.22-1.72.46-3.09,1.57-3.91,3h0c-.82,1.43-1.1,3.17-.64,4.89.08.29.17.56.28.83.12.28.24.54.39.78.16.27.26.55.3.84.04.29.02.59-.06.89-.08.3-.21.57-.39.8-.18.23-.41.43-.68.58-.97.55-1.72,1.41-2.14,2.42-.41.98-.51,2.11-.22,3.22.28,1.03.85,1.9,1.61,2.53.78.65,1.75,1.06,2.79,1.15.56.05,1.05.29,1.42.66.37.37.61.87.65,1.43.02.22.04.43.08.65h0c.04.21.08.43.14.64v.02c.51,1.85,1.7,3.32,3.24,4.21,1.54.89,3.42,1.19,5.28.69h.04c.44-.13.85-.29,1.24-.48.41-.2.8-.45,1.16-.72l.9-.69.3,1.1c.49,1.85,1.19,3.51,2.3,4.7,1.07,1.15,2.56,1.87,4.7,1.9h0Zm5.77-.64c-1.51,1.36-3.52,2.19-5.79,2.16-2.61-.04-4.45-.94-5.8-2.38-1.09-1.17-1.82-2.67-2.36-4.33-.16.1-.33.19-.5.27h0c-.49.24-1.01.44-1.55.59l-.1.03c-2.23.57-4.48.19-6.33-.88-1.88-1.09-3.35-2.89-3.96-5.15l-.03-.1c-.06-.22-.1-.45-.14-.68-.05-.26-.08-.53-.1-.79-.01-.18-.09-.35-.21-.47-.12-.12-.28-.2-.46-.21-1.35-.11-2.62-.65-3.64-1.5-.99-.83-1.75-1.96-2.11-3.31-.39-1.45-.26-2.91.28-4.19.55-1.31,1.52-2.44,2.8-3.16h0c.09-.05.16-.11.22-.19.05-.07.1-.16.12-.26.03-.1.04-.2.02-.29-.01-.09-.05-.18-.1-.27-.18-.31-.35-.63-.48-.96-.14-.33-.25-.67-.35-1.02-.57-2.12-.22-4.28.8-6.05,1.02-1.77,2.72-3.14,4.84-3.71.65-.17,1.31-.26,1.97-.27.39,0,.77.02,1.15.07.35-1.82,1.25-3.4,2.5-4.6,1.47-1.39,3.42-2.25,5.54-2.32,2.36-.08,4.19.64,5.61,1.89,1.37,1.21,2.32,2.9,2.96,4.83.17-.1.34-.19.51-.27.49-.24,1.01-.44,1.56-.59l.1-.03c2.23-.57,4.48-.19,6.33.88h0c1.88,1.09,3.35,2.89,3.95,5.15l.03.1c.06.22.11.45.14.68.04.26.08.53.1.79.01.18.09.35.21.47.12.12.28.2.46.21,1.35.11,2.62.65,3.64,1.5.99.83,1.75,1.96,2.11,3.31.39,1.45.26,2.91-.28,4.19-.55,1.31-1.52,2.44-2.8,3.16h0c-.09.05-.16.11-.22.19-.05.07-.1.16-.12.26-.03.1-.04.2-.02.29.01.09.05.18.1.27.18.31.35.63.48.96.14.33.25.67.35,1.02.57,2.12.22,4.28-.8,6.04-1.02,1.77-2.71,3.15-4.84,3.71-.65.17-1.31.26-1.97.27-.39,0-.77-.02-1.15-.07-.36,1.86-1.31,3.53-2.67,4.76Z"/>
    <path class="cls-2" d="m29.29,27.28c0-1.94.79-3.69,2.06-4.96,1.27-1.27,3.03-2.06,4.96-2.06s3.69.79,4.96,2.06c1.27,1.27,2.06,3.03,2.06,4.96,0,1.6-.54,3.07-1.44,4.26-.92,1.21-2.23,2.11-3.74,2.52-.33.09-.6.27-.79.52-.19.24-.29.56-.29.9v2.13h-1.53v-2.13c0-.68.22-1.31.61-1.82s.94-.89,1.6-1.07c1.18-.32,2.2-1.02,2.92-1.97.7-.92,1.12-2.08,1.12-3.33,0-1.52-.61-2.89-1.61-3.88-.99-.99-2.37-1.61-3.88-1.61s-2.89.61-3.88,1.61-1.61,2.37-1.61,3.88c0,0-1.53,0-1.53,0Z"/>
    <polygon class="cls-2" points="37.07 38.93 37.07 40.66 35.54 40.66 35.54 38.93 37.07 38.93"/>
    <path class="cls-2" d="m20.8,29.09c0-1.06.43-2.02,1.12-2.71h0c.69-.69,1.65-1.12,2.71-1.12s2.01.43,2.71,1.12h0c.69.69,1.12,1.65,1.12,2.71,0,.87-.29,1.68-.79,2.32-.5.66-1.22,1.15-2.04,1.37-.08.02-.14.06-.18.11-.04.05-.06.12-.06.2v1.04h-1.53v-1.04c0-.42.14-.81.38-1.13.24-.32.58-.55.99-.66.5-.13.92-.43,1.23-.83.29-.39.47-.87.47-1.4,0-.64-.26-1.21-.67-1.63-.42-.42-.99-.67-1.63-.67s-1.21.26-1.63.67c-.42.42-.67.99-.67,1.63h-1.53,0Z"/>
    <polygon class="cls-2" points="25.4 34.81 25.4 35.65 23.87 35.65 23.87 34.81 25.4 34.81"/>
    <path class="cls-2" d="m44.15,29.09c0-1.06.43-2.02,1.12-2.71s1.65-1.12,2.71-1.12,2.01.43,2.71,1.12h0c.69.69,1.12,1.65,1.12,2.71,0,.87-.29,1.68-.79,2.32-.5.66-1.22,1.15-2.04,1.37-.08.02-.14.06-.18.11-.04.05-.06.12-.06.2v1.04h-1.53v-1.04c0-.42.14-.81.38-1.13.24-.32.58-.55.99-.66.5-.13.92-.43,1.23-.83.29-.39.47-.87.47-1.4,0-.64-.26-1.21-.67-1.63-.42-.42-.99-.67-1.63-.67s-1.21.26-1.63.67-.67.99-.67,1.63h-1.53,0Z"/>
    <polygon class="cls-2" points="48.74 34.81 48.74 35.65 47.21 35.65 47.21 34.81 48.74 34.81"/>
    <path class="cls-2" d="m13.41,40.38c1.23,0,2.35.5,3.16,1.31h0c.81.81,1.31,1.93,1.31,3.16s-.5,2.35-1.31,3.16c-.81.81-1.93,1.31-3.16,1.31s-2.35-.5-3.16-1.31-1.31-1.93-1.31-3.16.5-2.35,1.31-3.16c.81-.81,1.93-1.31,3.16-1.31Zm2.08,2.39c-.53-.53-1.27-.86-2.08-.86s-1.55.33-2.08.86h0c-.53.53-.86,1.27-.86,2.08s.33,1.55.86,2.08c.53.53,1.27.86,2.08.86s1.55-.33,2.08-.86h0c.53-.54.86-1.27.86-2.08s-.33-1.55-.86-2.08h0s0,0,0,0Z"/>
    <path class="cls-2" d="m7.72,50.4c.89,0,1.69.36,2.28.94h0c.58.59.94,1.39.94,2.28s-.36,1.69-.94,2.28h0c-.58.59-1.39.95-2.28.95s-1.7-.36-2.28-.94h0c-.58-.59-.94-1.39-.94-2.28s.36-1.69.94-2.28h0c.58-.59,1.39-.95,2.28-.95Zm1.2,2.02c-.31-.31-.73-.5-1.2-.5s-.89.19-1.2.5c-.31.31-.5.73-.5,1.2s.19.9.5,1.2c.31.31.73.5,1.2.5s.9-.19,1.2-.5c.31-.31.5-.73.5-1.2s-.19-.9-.5-1.2h0Z"/>
  </g>
</svg>